<mxfile host="Electron" modified="2023-11-20T14:59:25.777Z" agent="Mozilla/5.0 (X11; Linux x86_64) AppleWebKit/537.36 (KHTML, like Gecko) draw.io/21.1.2 Chrome/106.0.5249.199 Electron/21.4.3 Safari/537.36" etag="XBaNd3i-0zyc88i1Yz4D" version="21.1.2" type="device">
  <diagram name="Page-1" id="6133507b-19e7-1e82-6fc7-422aa6c4b21f">
    <mxGraphModel dx="2402" dy="753" grid="0" gridSize="10" guides="1" tooltips="1" connect="1" arrows="1" fold="1" page="1" pageScale="1" pageWidth="1100" pageHeight="850" background="#A9C4EB" math="0" shadow="0">
      <root>
        <mxCell id="0" />
        <mxCell id="1" parent="0" />
        <mxCell id="uGEq2eV-W03FdyliBu1q-13" value="&lt;span style=&quot;font-size: 22px;&quot;&gt;Elements Distributor&lt;br&gt;&lt;/span&gt;" style="shape=module;align=left;spacingLeft=20;align=center;verticalAlign=top;whiteSpace=wrap;html=1;" parent="1" vertex="1">
          <mxGeometry x="-900.5" y="3151" width="1354.5" height="652" as="geometry" />
        </mxCell>
        <mxCell id="uGEq2eV-W03FdyliBu1q-2" value="" style="rounded=0;whiteSpace=wrap;html=1;fillColor=#dae8fc;strokeColor=#6c8ebf;" parent="1" vertex="1">
          <mxGeometry x="1537" y="1195" width="392" height="168" as="geometry" />
        </mxCell>
        <mxCell id="cmbBCZXr3KO4VdV7eKeR-48" value="&lt;span style=&quot;font-size: 22px;&quot;&gt;External Module API&lt;br&gt;&lt;/span&gt;" style="shape=module;align=left;spacingLeft=20;align=center;verticalAlign=top;whiteSpace=wrap;html=1;" parent="1" vertex="1">
          <mxGeometry x="-753" y="2143" width="927" height="266" as="geometry" />
        </mxCell>
        <mxCell id="UJDx8VH_fSjyyaCmhiH3-1" value="&lt;span style=&quot;font-size: 22px;&quot;&gt;Element Distributor&lt;/span&gt;" style="shape=module;align=left;spacingLeft=20;align=center;verticalAlign=top;whiteSpace=wrap;html=1;" parent="1" vertex="1">
          <mxGeometry x="-916" y="2520.75" width="1129" height="528.25" as="geometry" />
        </mxCell>
        <mxCell id="TKWjIK_nqhg0Qx_Ndcxz-42" style="edgeStyle=orthogonalEdgeStyle;rounded=0;orthogonalLoop=1;jettySize=auto;html=1;exitX=0;exitY=0;exitDx=0;exitDy=35;exitPerimeter=0;entryX=1;entryY=0.5;entryDx=0;entryDy=0;" parent="1" source="TKWjIK_nqhg0Qx_Ndcxz-37" target="TKWjIK_nqhg0Qx_Ndcxz-40" edge="1">
          <mxGeometry relative="1" as="geometry" />
        </mxCell>
        <mxCell id="TKWjIK_nqhg0Qx_Ndcxz-37" value="&lt;font style=&quot;font-size: 22px;&quot;&gt;Measurements Processor&lt;/font&gt;" style="shape=module;align=left;spacingLeft=20;align=center;verticalAlign=top;whiteSpace=wrap;html=1;" parent="1" vertex="1">
          <mxGeometry x="-893" y="631" width="1846" height="1041" as="geometry" />
        </mxCell>
        <mxCell id="jgLlG5gbJCbwpfzQCMnW-12" value="LoopDetector" style="swimlane;html=1;fontStyle=1;align=center;verticalAlign=top;childLayout=stackLayout;horizontal=1;startSize=26;horizontalStack=0;resizeParent=1;resizeLast=0;collapsible=1;marginBottom=0;swimlaneFillColor=#ffffff;rounded=0;shadow=0;comic=0;labelBackgroundColor=none;strokeWidth=1;fillColor=none;fontFamily=Verdana;fontSize=12" parent="1" vertex="1">
          <mxGeometry x="393" y="125" width="160" height="190" as="geometry" />
        </mxCell>
        <mxCell id="jgLlG5gbJCbwpfzQCMnW-13" value="+ num_loops: int" style="text;html=1;strokeColor=none;fillColor=none;align=left;verticalAlign=top;spacingLeft=4;spacingRight=4;whiteSpace=wrap;overflow=hidden;rotatable=0;points=[[0,0.5],[1,0.5]];portConstraint=eastwest;" parent="jgLlG5gbJCbwpfzQCMnW-12" vertex="1">
          <mxGeometry y="26" width="160" height="26" as="geometry" />
        </mxCell>
        <mxCell id="jgLlG5gbJCbwpfzQCMnW-14" value="+ loop_type:&amp;nbsp;" style="text;html=1;strokeColor=none;fillColor=none;align=left;verticalAlign=top;spacingLeft=4;spacingRight=4;whiteSpace=wrap;overflow=hidden;rotatable=0;points=[[0,0.5],[1,0.5]];portConstraint=eastwest;" parent="jgLlG5gbJCbwpfzQCMnW-12" vertex="1">
          <mxGeometry y="52" width="160" height="26" as="geometry" />
        </mxCell>
        <mxCell id="jgLlG5gbJCbwpfzQCMnW-15" value="+ loop_likelihood: float" style="text;html=1;strokeColor=none;fillColor=none;align=left;verticalAlign=top;spacingLeft=4;spacingRight=4;whiteSpace=wrap;overflow=hidden;rotatable=0;points=[[0,0.5],[1,0.5]];portConstraint=eastwest;" parent="jgLlG5gbJCbwpfzQCMnW-12" vertex="1">
          <mxGeometry y="78" width="160" height="26" as="geometry" />
        </mxCell>
        <mxCell id="jgLlG5gbJCbwpfzQCMnW-16" value="" style="line;html=1;strokeWidth=1;fillColor=none;align=left;verticalAlign=middle;spacingTop=-1;spacingLeft=3;spacingRight=3;rotatable=0;labelPosition=right;points=[];portConstraint=eastwest;" parent="jgLlG5gbJCbwpfzQCMnW-12" vertex="1">
          <mxGeometry y="104" width="160" height="8" as="geometry" />
        </mxCell>
        <mxCell id="jgLlG5gbJCbwpfzQCMnW-17" value="+ find_loops():" style="text;html=1;strokeColor=none;fillColor=none;align=left;verticalAlign=top;spacingLeft=4;spacingRight=4;whiteSpace=wrap;overflow=hidden;rotatable=0;points=[[0,0.5],[1,0.5]];portConstraint=eastwest;" parent="jgLlG5gbJCbwpfzQCMnW-12" vertex="1">
          <mxGeometry y="112" width="160" height="26" as="geometry" />
        </mxCell>
        <mxCell id="jgLlG5gbJCbwpfzQCMnW-18" value="+ add_loop():" style="text;html=1;strokeColor=none;fillColor=none;align=left;verticalAlign=top;spacingLeft=4;spacingRight=4;whiteSpace=wrap;overflow=hidden;rotatable=0;points=[[0,0.5],[1,0.5]];portConstraint=eastwest;" parent="jgLlG5gbJCbwpfzQCMnW-12" vertex="1">
          <mxGeometry y="138" width="160" height="26" as="geometry" />
        </mxCell>
        <mxCell id="jgLlG5gbJCbwpfzQCMnW-19" value="+ remove_loop()" style="text;html=1;strokeColor=none;fillColor=none;align=left;verticalAlign=top;spacingLeft=4;spacingRight=4;whiteSpace=wrap;overflow=hidden;rotatable=0;points=[[0,0.5],[1,0.5]];portConstraint=eastwest;" parent="jgLlG5gbJCbwpfzQCMnW-12" vertex="1">
          <mxGeometry y="164" width="160" height="26" as="geometry" />
        </mxCell>
        <mxCell id="TKWjIK_nqhg0Qx_Ndcxz-6" style="edgeStyle=orthogonalEdgeStyle;rounded=0;orthogonalLoop=1;jettySize=auto;html=1;entryX=0;entryY=0.5;entryDx=0;entryDy=0;" parent="1" source="TKWjIK_nqhg0Qx_Ndcxz-1" target="TKWjIK_nqhg0Qx_Ndcxz-5" edge="1">
          <mxGeometry relative="1" as="geometry" />
        </mxCell>
        <mxCell id="TKWjIK_nqhg0Qx_Ndcxz-1" value="&lt;font style=&quot;&quot;&gt;&lt;span style=&quot;font-size: 20px;&quot;&gt;Measurements Processor&lt;/span&gt;&lt;br&gt;&lt;font style=&quot;font-size: 16px;&quot;&gt;(process raw measurement chunks and creates factors)&lt;/font&gt;&lt;br&gt;&lt;/font&gt;" style="rounded=1;whiteSpace=wrap;html=1;" parent="1" vertex="1">
          <mxGeometry x="-821" y="189" width="222" height="160" as="geometry" />
        </mxCell>
        <mxCell id="TKWjIK_nqhg0Qx_Ndcxz-3" style="edgeStyle=orthogonalEdgeStyle;rounded=0;orthogonalLoop=1;jettySize=auto;html=1;entryX=0;entryY=0.5;entryDx=0;entryDy=0;" parent="1" source="TKWjIK_nqhg0Qx_Ndcxz-2" target="TKWjIK_nqhg0Qx_Ndcxz-1" edge="1">
          <mxGeometry relative="1" as="geometry" />
        </mxCell>
        <mxCell id="TKWjIK_nqhg0Qx_Ndcxz-7" style="edgeStyle=orthogonalEdgeStyle;rounded=0;orthogonalLoop=1;jettySize=auto;html=1;entryX=0.5;entryY=1;entryDx=0;entryDy=0;exitX=1;exitY=0.5;exitDx=0;exitDy=0;" parent="1" source="TKWjIK_nqhg0Qx_Ndcxz-2" target="TKWjIK_nqhg0Qx_Ndcxz-5" edge="1">
          <mxGeometry relative="1" as="geometry">
            <Array as="points">
              <mxPoint x="-883" y="269" />
              <mxPoint x="-883" y="393" />
              <mxPoint x="-437" y="393" />
            </Array>
          </mxGeometry>
        </mxCell>
        <mxCell id="TKWjIK_nqhg0Qx_Ndcxz-31" style="edgeStyle=orthogonalEdgeStyle;rounded=0;orthogonalLoop=1;jettySize=auto;html=1;entryX=0;entryY=0.5;entryDx=0;entryDy=0;" parent="1" source="TKWjIK_nqhg0Qx_Ndcxz-2" target="TKWjIK_nqhg0Qx_Ndcxz-4" edge="1">
          <mxGeometry relative="1" as="geometry">
            <Array as="points">
              <mxPoint x="-883" y="269" />
              <mxPoint x="-883" y="108" />
            </Array>
          </mxGeometry>
        </mxCell>
        <mxCell id="TKWjIK_nqhg0Qx_Ndcxz-2" value="&lt;font style=&quot;font-size: 22px;&quot;&gt;Data Batch&lt;/font&gt;" style="rounded=1;whiteSpace=wrap;html=1;fillColor=#ffe6cc;strokeColor=#d79b00;" parent="1" vertex="1">
          <mxGeometry x="-1047" y="239" width="120" height="60" as="geometry" />
        </mxCell>
        <mxCell id="TKWjIK_nqhg0Qx_Ndcxz-33" style="edgeStyle=orthogonalEdgeStyle;rounded=0;orthogonalLoop=1;jettySize=auto;html=1;entryX=0.5;entryY=0;entryDx=0;entryDy=0;" parent="1" source="TKWjIK_nqhg0Qx_Ndcxz-4" target="TKWjIK_nqhg0Qx_Ndcxz-5" edge="1">
          <mxGeometry relative="1" as="geometry" />
        </mxCell>
        <mxCell id="TKWjIK_nqhg0Qx_Ndcxz-4" value="&lt;font style=&quot;&quot;&gt;&lt;span style=&quot;font-size: 20px;&quot;&gt;Loop Detector&amp;nbsp;&lt;/span&gt;&lt;br&gt;&lt;font style=&quot;font-size: 16px;&quot;&gt;(Tracks loops based on geometry/symantics)&lt;/font&gt;&lt;br&gt;&lt;/font&gt;" style="rounded=1;whiteSpace=wrap;html=1;" parent="1" vertex="1">
          <mxGeometry x="-803" y="68" width="180" height="80" as="geometry" />
        </mxCell>
        <mxCell id="TKWjIK_nqhg0Qx_Ndcxz-12" style="edgeStyle=orthogonalEdgeStyle;rounded=0;orthogonalLoop=1;jettySize=auto;html=1;entryX=0;entryY=0.5;entryDx=0;entryDy=0;" parent="1" source="TKWjIK_nqhg0Qx_Ndcxz-5" target="TKWjIK_nqhg0Qx_Ndcxz-11" edge="1">
          <mxGeometry relative="1" as="geometry" />
        </mxCell>
        <mxCell id="TKWjIK_nqhg0Qx_Ndcxz-5" value="&lt;font style=&quot;&quot;&gt;&lt;span style=&quot;font-size: 20px;&quot;&gt;Anomaly Detector&lt;/span&gt;&lt;br&gt;&lt;font style=&quot;font-size: 16px;&quot;&gt;(ML/DL-based detector of anomalies in factors and raw measurements)&lt;/font&gt;&lt;br&gt;&lt;/font&gt;" style="rounded=1;whiteSpace=wrap;html=1;" parent="1" vertex="1">
          <mxGeometry x="-531" y="229" width="188" height="80" as="geometry" />
        </mxCell>
        <mxCell id="TKWjIK_nqhg0Qx_Ndcxz-11" value="&lt;font style=&quot;&quot;&gt;&lt;span style=&quot;font-size: 20px;&quot;&gt;Graph Builder&lt;/span&gt;&lt;br&gt;&lt;font style=&quot;font-size: 16px;&quot;&gt;(creates factor graph based on processed measurements and sensor setup)&lt;/font&gt;&lt;br&gt;&lt;/font&gt;" style="rounded=1;whiteSpace=wrap;html=1;" parent="1" vertex="1">
          <mxGeometry x="-258" y="189" width="160" height="160" as="geometry" />
        </mxCell>
        <mxCell id="TKWjIK_nqhg0Qx_Ndcxz-14" style="edgeStyle=orthogonalEdgeStyle;rounded=0;orthogonalLoop=1;jettySize=auto;html=1;entryX=0.5;entryY=0;entryDx=0;entryDy=0;" parent="1" source="TKWjIK_nqhg0Qx_Ndcxz-13" target="TKWjIK_nqhg0Qx_Ndcxz-11" edge="1">
          <mxGeometry relative="1" as="geometry" />
        </mxCell>
        <mxCell id="TKWjIK_nqhg0Qx_Ndcxz-32" style="edgeStyle=orthogonalEdgeStyle;rounded=0;orthogonalLoop=1;jettySize=auto;html=1;entryX=0.5;entryY=0;entryDx=0;entryDy=0;" parent="1" source="TKWjIK_nqhg0Qx_Ndcxz-13" target="TKWjIK_nqhg0Qx_Ndcxz-4" edge="1">
          <mxGeometry relative="1" as="geometry" />
        </mxCell>
        <mxCell id="TKWjIK_nqhg0Qx_Ndcxz-13" value="&lt;span style=&quot;font-size: 22px;&quot;&gt;Backend&lt;br&gt;&lt;/span&gt;" style="rounded=1;whiteSpace=wrap;html=1;fillColor=#d5e8d4;strokeColor=#82b366;" parent="1" vertex="1">
          <mxGeometry x="-292" y="17" width="228" height="60" as="geometry" />
        </mxCell>
        <mxCell id="TKWjIK_nqhg0Qx_Ndcxz-15" value="AnomalyDetector" style="swimlane;html=1;fontStyle=1;align=center;verticalAlign=top;childLayout=stackLayout;horizontal=1;startSize=26;horizontalStack=0;resizeParent=1;resizeLast=0;collapsible=1;marginBottom=0;swimlaneFillColor=#ffffff;rounded=0;shadow=0;comic=0;labelBackgroundColor=none;strokeWidth=1;fillColor=none;fontFamily=Verdana;fontSize=12" parent="1" vertex="1">
          <mxGeometry x="220" y="160" width="170" height="120" as="geometry" />
        </mxCell>
        <mxCell id="TKWjIK_nqhg0Qx_Ndcxz-16" value="+ Type:" style="text;html=1;strokeColor=none;fillColor=none;align=left;verticalAlign=top;spacingLeft=4;spacingRight=4;whiteSpace=wrap;overflow=hidden;rotatable=0;points=[[0,0.5],[1,0.5]];portConstraint=eastwest;" parent="TKWjIK_nqhg0Qx_Ndcxz-15" vertex="1">
          <mxGeometry y="26" width="170" height="24" as="geometry" />
        </mxCell>
        <mxCell id="TKWjIK_nqhg0Qx_Ndcxz-17" value="+ Params:" style="text;html=1;strokeColor=none;fillColor=none;align=left;verticalAlign=top;spacingLeft=4;spacingRight=4;whiteSpace=wrap;overflow=hidden;rotatable=0;points=[[0,0.5],[1,0.5]];portConstraint=eastwest;" parent="TKWjIK_nqhg0Qx_Ndcxz-15" vertex="1">
          <mxGeometry y="50" width="170" height="20" as="geometry" />
        </mxCell>
        <mxCell id="TKWjIK_nqhg0Qx_Ndcxz-18" value="" style="line;html=1;strokeWidth=1;fillColor=none;align=left;verticalAlign=middle;spacingTop=-1;spacingLeft=3;spacingRight=3;rotatable=0;labelPosition=right;points=[];portConstraint=eastwest;" parent="TKWjIK_nqhg0Qx_Ndcxz-15" vertex="1">
          <mxGeometry y="70" width="170" height="8" as="geometry" />
        </mxCell>
        <mxCell id="TKWjIK_nqhg0Qx_Ndcxz-19" value="+ detect():" style="text;html=1;strokeColor=none;fillColor=none;align=left;verticalAlign=top;spacingLeft=4;spacingRight=4;whiteSpace=wrap;overflow=hidden;rotatable=0;points=[[0,0.5],[1,0.5]];portConstraint=eastwest;" parent="TKWjIK_nqhg0Qx_Ndcxz-15" vertex="1">
          <mxGeometry y="78" width="170" height="26" as="geometry" />
        </mxCell>
        <mxCell id="TKWjIK_nqhg0Qx_Ndcxz-39" style="edgeStyle=orthogonalEdgeStyle;rounded=0;orthogonalLoop=1;jettySize=auto;html=1;entryX=0;entryY=0;entryDx=0;entryDy=15;entryPerimeter=0;" parent="1" source="TKWjIK_nqhg0Qx_Ndcxz-38" target="TKWjIK_nqhg0Qx_Ndcxz-37" edge="1">
          <mxGeometry relative="1" as="geometry" />
        </mxCell>
        <mxCell id="TKWjIK_nqhg0Qx_Ndcxz-38" value="&lt;font style=&quot;font-size: 16px;&quot;&gt;Data Batch&lt;/font&gt;" style="rounded=1;whiteSpace=wrap;html=1;" parent="1" vertex="1">
          <mxGeometry x="-1021" y="590" width="78" height="47" as="geometry" />
        </mxCell>
        <mxCell id="TKWjIK_nqhg0Qx_Ndcxz-40" value="&lt;font style=&quot;font-size: 16px;&quot;&gt;Factors&lt;/font&gt;" style="rounded=1;whiteSpace=wrap;html=1;" parent="1" vertex="1">
          <mxGeometry x="-1021" y="669" width="83" height="41" as="geometry" />
        </mxCell>
        <mxCell id="FBjPzx07GxaDUaOyeUmr-117" style="edgeStyle=orthogonalEdgeStyle;rounded=0;orthogonalLoop=1;jettySize=auto;html=1;entryX=0.1;entryY=0.5;entryDx=0;entryDy=0;entryPerimeter=0;" parent="1" source="FBjPzx07GxaDUaOyeUmr-86" target="FBjPzx07GxaDUaOyeUmr-116" edge="1">
          <mxGeometry relative="1" as="geometry" />
        </mxCell>
        <mxCell id="FBjPzx07GxaDUaOyeUmr-86" value="abstract MeasurementProcessor" style="swimlane;html=1;fontStyle=1;align=center;verticalAlign=top;childLayout=stackLayout;horizontal=1;startSize=26;horizontalStack=0;resizeParent=1;resizeLast=0;collapsible=1;marginBottom=0;swimlaneFillColor=#ffffff;rounded=0;shadow=0;comic=0;labelBackgroundColor=none;strokeWidth=1;fillColor=none;fontFamily=Verdana;fontSize=12" parent="1" vertex="1">
          <mxGeometry x="-538.5" y="659.0799999999999" width="223" height="150" as="geometry" />
        </mxCell>
        <mxCell id="FBjPzx07GxaDUaOyeUmr-88" value="+ name: str" style="text;html=1;strokeColor=none;fillColor=none;align=left;verticalAlign=top;spacingLeft=4;spacingRight=4;whiteSpace=wrap;overflow=hidden;rotatable=0;points=[[0,0.5],[1,0.5]];portConstraint=eastwest;" parent="FBjPzx07GxaDUaOyeUmr-86" vertex="1">
          <mxGeometry y="26" width="223" height="20" as="geometry" />
        </mxCell>
        <mxCell id="FBjPzx07GxaDUaOyeUmr-89" value="+ params: dict" style="text;html=1;strokeColor=none;fillColor=none;align=left;verticalAlign=top;spacingLeft=4;spacingRight=4;whiteSpace=wrap;overflow=hidden;rotatable=0;points=[[0,0.5],[1,0.5]];portConstraint=eastwest;" parent="FBjPzx07GxaDUaOyeUmr-86" vertex="1">
          <mxGeometry y="46" width="223" height="20" as="geometry" />
        </mxCell>
        <mxCell id="FBjPzx07GxaDUaOyeUmr-90" value="" style="line;html=1;strokeWidth=1;fillColor=none;align=left;verticalAlign=middle;spacingTop=-1;spacingLeft=3;spacingRight=3;rotatable=0;labelPosition=right;points=[];portConstraint=eastwest;" parent="FBjPzx07GxaDUaOyeUmr-86" vertex="1">
          <mxGeometry y="66" width="223" height="8" as="geometry" />
        </mxCell>
        <mxCell id="FBjPzx07GxaDUaOyeUmr-92" value="+ grab_data():" style="text;html=1;strokeColor=none;fillColor=none;align=left;verticalAlign=top;spacingLeft=4;spacingRight=4;whiteSpace=wrap;overflow=hidden;rotatable=0;points=[[0,0.5],[1,0.5]];portConstraint=eastwest;" parent="FBjPzx07GxaDUaOyeUmr-86" vertex="1">
          <mxGeometry y="74" width="223" height="26" as="geometry" />
        </mxCell>
        <mxCell id="FBjPzx07GxaDUaOyeUmr-91" value="+ grab_sensor():" style="text;html=1;strokeColor=none;fillColor=none;align=left;verticalAlign=top;spacingLeft=4;spacingRight=4;whiteSpace=wrap;overflow=hidden;rotatable=0;points=[[0,0.5],[1,0.5]];portConstraint=eastwest;" parent="FBjPzx07GxaDUaOyeUmr-86" vertex="1">
          <mxGeometry y="100" width="223" height="26" as="geometry" />
        </mxCell>
        <mxCell id="FBjPzx07GxaDUaOyeUmr-94" value="CameraOdometry(MeasurementProcessor)" style="swimlane;html=1;fontStyle=1;align=center;verticalAlign=top;childLayout=stackLayout;horizontal=1;startSize=26;horizontalStack=0;resizeParent=1;resizeLast=0;collapsible=1;marginBottom=0;swimlaneFillColor=#ffffff;rounded=0;shadow=0;comic=0;labelBackgroundColor=none;strokeWidth=1;fillColor=none;fontFamily=Verdana;fontSize=12" parent="1" vertex="1">
          <mxGeometry x="-813" y="870.5699999999999" width="233" height="152" as="geometry" />
        </mxCell>
        <mxCell id="FBjPzx07GxaDUaOyeUmr-95" value="+ name: str" style="text;html=1;strokeColor=none;fillColor=none;align=left;verticalAlign=top;spacingLeft=4;spacingRight=4;whiteSpace=wrap;overflow=hidden;rotatable=0;points=[[0,0.5],[1,0.5]];portConstraint=eastwest;" parent="FBjPzx07GxaDUaOyeUmr-94" vertex="1">
          <mxGeometry y="26" width="233" height="20" as="geometry" />
        </mxCell>
        <mxCell id="FBjPzx07GxaDUaOyeUmr-96" value="+ params: dict" style="text;html=1;strokeColor=none;fillColor=none;align=left;verticalAlign=top;spacingLeft=4;spacingRight=4;whiteSpace=wrap;overflow=hidden;rotatable=0;points=[[0,0.5],[1,0.5]];portConstraint=eastwest;" parent="FBjPzx07GxaDUaOyeUmr-94" vertex="1">
          <mxGeometry y="46" width="233" height="20" as="geometry" />
        </mxCell>
        <mxCell id="FBjPzx07GxaDUaOyeUmr-97" value="" style="line;html=1;strokeWidth=1;fillColor=none;align=left;verticalAlign=middle;spacingTop=-1;spacingLeft=3;spacingRight=3;rotatable=0;labelPosition=right;points=[];portConstraint=eastwest;" parent="FBjPzx07GxaDUaOyeUmr-94" vertex="1">
          <mxGeometry y="66" width="233" height="8" as="geometry" />
        </mxCell>
        <mxCell id="FBjPzx07GxaDUaOyeUmr-98" value="+ grab_data():" style="text;html=1;strokeColor=none;fillColor=none;align=left;verticalAlign=top;spacingLeft=4;spacingRight=4;whiteSpace=wrap;overflow=hidden;rotatable=0;points=[[0,0.5],[1,0.5]];portConstraint=eastwest;" parent="FBjPzx07GxaDUaOyeUmr-94" vertex="1">
          <mxGeometry y="74" width="233" height="26" as="geometry" />
        </mxCell>
        <mxCell id="FBjPzx07GxaDUaOyeUmr-99" value="+ grab_sensor():" style="text;html=1;strokeColor=none;fillColor=none;align=left;verticalAlign=top;spacingLeft=4;spacingRight=4;whiteSpace=wrap;overflow=hidden;rotatable=0;points=[[0,0.5],[1,0.5]];portConstraint=eastwest;" parent="FBjPzx07GxaDUaOyeUmr-94" vertex="1">
          <mxGeometry y="100" width="233" height="26" as="geometry" />
        </mxCell>
        <mxCell id="FBjPzx07GxaDUaOyeUmr-106" value="+ get_relative_tf():" style="text;html=1;strokeColor=none;fillColor=none;align=left;verticalAlign=top;spacingLeft=4;spacingRight=4;whiteSpace=wrap;overflow=hidden;rotatable=0;points=[[0,0.5],[1,0.5]];portConstraint=eastwest;" parent="FBjPzx07GxaDUaOyeUmr-94" vertex="1">
          <mxGeometry y="126" width="233" height="26" as="geometry" />
        </mxCell>
        <mxCell id="FBjPzx07GxaDUaOyeUmr-100" value="LidarOdometry(MeasurementProcessor)" style="swimlane;html=1;fontStyle=1;align=center;verticalAlign=top;childLayout=stackLayout;horizontal=1;startSize=26;horizontalStack=0;resizeParent=1;resizeLast=0;collapsible=1;marginBottom=0;swimlaneFillColor=#ffffff;rounded=0;shadow=0;comic=0;labelBackgroundColor=none;strokeWidth=1;fillColor=none;fontFamily=Verdana;fontSize=12" parent="1" vertex="1">
          <mxGeometry x="-543" y="872.5699999999999" width="232" height="152" as="geometry" />
        </mxCell>
        <mxCell id="FBjPzx07GxaDUaOyeUmr-101" value="+ name: str" style="text;html=1;strokeColor=none;fillColor=none;align=left;verticalAlign=top;spacingLeft=4;spacingRight=4;whiteSpace=wrap;overflow=hidden;rotatable=0;points=[[0,0.5],[1,0.5]];portConstraint=eastwest;" parent="FBjPzx07GxaDUaOyeUmr-100" vertex="1">
          <mxGeometry y="26" width="232" height="20" as="geometry" />
        </mxCell>
        <mxCell id="FBjPzx07GxaDUaOyeUmr-102" value="+ params: dict" style="text;html=1;strokeColor=none;fillColor=none;align=left;verticalAlign=top;spacingLeft=4;spacingRight=4;whiteSpace=wrap;overflow=hidden;rotatable=0;points=[[0,0.5],[1,0.5]];portConstraint=eastwest;" parent="FBjPzx07GxaDUaOyeUmr-100" vertex="1">
          <mxGeometry y="46" width="232" height="20" as="geometry" />
        </mxCell>
        <mxCell id="FBjPzx07GxaDUaOyeUmr-103" value="" style="line;html=1;strokeWidth=1;fillColor=none;align=left;verticalAlign=middle;spacingTop=-1;spacingLeft=3;spacingRight=3;rotatable=0;labelPosition=right;points=[];portConstraint=eastwest;" parent="FBjPzx07GxaDUaOyeUmr-100" vertex="1">
          <mxGeometry y="66" width="232" height="8" as="geometry" />
        </mxCell>
        <mxCell id="FBjPzx07GxaDUaOyeUmr-104" value="+ grab_data():" style="text;html=1;strokeColor=none;fillColor=none;align=left;verticalAlign=top;spacingLeft=4;spacingRight=4;whiteSpace=wrap;overflow=hidden;rotatable=0;points=[[0,0.5],[1,0.5]];portConstraint=eastwest;" parent="FBjPzx07GxaDUaOyeUmr-100" vertex="1">
          <mxGeometry y="74" width="232" height="26" as="geometry" />
        </mxCell>
        <mxCell id="FBjPzx07GxaDUaOyeUmr-105" value="+ grab_sensor():" style="text;html=1;strokeColor=none;fillColor=none;align=left;verticalAlign=top;spacingLeft=4;spacingRight=4;whiteSpace=wrap;overflow=hidden;rotatable=0;points=[[0,0.5],[1,0.5]];portConstraint=eastwest;" parent="FBjPzx07GxaDUaOyeUmr-100" vertex="1">
          <mxGeometry y="100" width="232" height="26" as="geometry" />
        </mxCell>
        <mxCell id="FBjPzx07GxaDUaOyeUmr-107" value="+ get_relative_tf():" style="text;html=1;strokeColor=none;fillColor=none;align=left;verticalAlign=top;spacingLeft=4;spacingRight=4;whiteSpace=wrap;overflow=hidden;rotatable=0;points=[[0,0.5],[1,0.5]];portConstraint=eastwest;" parent="FBjPzx07GxaDUaOyeUmr-100" vertex="1">
          <mxGeometry y="126" width="232" height="26" as="geometry" />
        </mxCell>
        <mxCell id="FBjPzx07GxaDUaOyeUmr-108" value="ImuOdometry(MeasurementProcessor)" style="swimlane;html=1;fontStyle=1;align=center;verticalAlign=top;childLayout=stackLayout;horizontal=1;startSize=26;horizontalStack=0;resizeParent=1;resizeLast=0;collapsible=1;marginBottom=0;swimlaneFillColor=#ffffff;rounded=0;shadow=0;comic=0;labelBackgroundColor=none;strokeWidth=1;fillColor=none;fontFamily=Verdana;fontSize=12" parent="1" vertex="1">
          <mxGeometry x="-263" y="870.5699999999999" width="223" height="152" as="geometry" />
        </mxCell>
        <mxCell id="FBjPzx07GxaDUaOyeUmr-109" value="+ name: str" style="text;html=1;strokeColor=none;fillColor=none;align=left;verticalAlign=top;spacingLeft=4;spacingRight=4;whiteSpace=wrap;overflow=hidden;rotatable=0;points=[[0,0.5],[1,0.5]];portConstraint=eastwest;" parent="FBjPzx07GxaDUaOyeUmr-108" vertex="1">
          <mxGeometry y="26" width="223" height="20" as="geometry" />
        </mxCell>
        <mxCell id="FBjPzx07GxaDUaOyeUmr-110" value="+ params: dict" style="text;html=1;strokeColor=none;fillColor=none;align=left;verticalAlign=top;spacingLeft=4;spacingRight=4;whiteSpace=wrap;overflow=hidden;rotatable=0;points=[[0,0.5],[1,0.5]];portConstraint=eastwest;" parent="FBjPzx07GxaDUaOyeUmr-108" vertex="1">
          <mxGeometry y="46" width="223" height="20" as="geometry" />
        </mxCell>
        <mxCell id="FBjPzx07GxaDUaOyeUmr-111" value="" style="line;html=1;strokeWidth=1;fillColor=none;align=left;verticalAlign=middle;spacingTop=-1;spacingLeft=3;spacingRight=3;rotatable=0;labelPosition=right;points=[];portConstraint=eastwest;" parent="FBjPzx07GxaDUaOyeUmr-108" vertex="1">
          <mxGeometry y="66" width="223" height="8" as="geometry" />
        </mxCell>
        <mxCell id="FBjPzx07GxaDUaOyeUmr-112" value="+ grab_data():" style="text;html=1;strokeColor=none;fillColor=none;align=left;verticalAlign=top;spacingLeft=4;spacingRight=4;whiteSpace=wrap;overflow=hidden;rotatable=0;points=[[0,0.5],[1,0.5]];portConstraint=eastwest;" parent="FBjPzx07GxaDUaOyeUmr-108" vertex="1">
          <mxGeometry y="74" width="223" height="26" as="geometry" />
        </mxCell>
        <mxCell id="FBjPzx07GxaDUaOyeUmr-113" value="+ grab_sensor():" style="text;html=1;strokeColor=none;fillColor=none;align=left;verticalAlign=top;spacingLeft=4;spacingRight=4;whiteSpace=wrap;overflow=hidden;rotatable=0;points=[[0,0.5],[1,0.5]];portConstraint=eastwest;" parent="FBjPzx07GxaDUaOyeUmr-108" vertex="1">
          <mxGeometry y="100" width="223" height="26" as="geometry" />
        </mxCell>
        <mxCell id="FBjPzx07GxaDUaOyeUmr-114" value="+ preintegrate():" style="text;html=1;strokeColor=none;fillColor=none;align=left;verticalAlign=top;spacingLeft=4;spacingRight=4;whiteSpace=wrap;overflow=hidden;rotatable=0;points=[[0,0.5],[1,0.5]];portConstraint=eastwest;" parent="FBjPzx07GxaDUaOyeUmr-108" vertex="1">
          <mxGeometry y="126" width="223" height="26" as="geometry" />
        </mxCell>
        <mxCell id="FBjPzx07GxaDUaOyeUmr-116" value="" style="shape=curlyBracket;whiteSpace=wrap;html=1;rounded=1;labelPosition=left;verticalLabelPosition=middle;align=right;verticalAlign=middle;rotation=90;" parent="1" vertex="1">
          <mxGeometry x="-444.06" y="455" width="34.75" height="784.9" as="geometry" />
        </mxCell>
        <mxCell id="FBjPzx07GxaDUaOyeUmr-119" value="&lt;span style=&quot;font-size: 22px;&quot;&gt;Loop Detector&lt;/span&gt;" style="shape=module;align=left;spacingLeft=20;align=center;verticalAlign=top;whiteSpace=wrap;html=1;" parent="1" vertex="1">
          <mxGeometry x="1193" y="4435" width="736" height="794" as="geometry" />
        </mxCell>
        <mxCell id="FBjPzx07GxaDUaOyeUmr-125" style="edgeStyle=orthogonalEdgeStyle;rounded=0;orthogonalLoop=1;jettySize=auto;html=1;entryX=0;entryY=0;entryDx=0;entryDy=15;entryPerimeter=0;" parent="1" source="FBjPzx07GxaDUaOyeUmr-120" target="FBjPzx07GxaDUaOyeUmr-119" edge="1">
          <mxGeometry relative="1" as="geometry" />
        </mxCell>
        <mxCell id="FBjPzx07GxaDUaOyeUmr-120" value="&lt;font style=&quot;font-size: 16px;&quot;&gt;Data Chunk&lt;/font&gt;" style="rounded=1;whiteSpace=wrap;html=1;" parent="1" vertex="1">
          <mxGeometry x="1041" y="4391" width="78" height="47" as="geometry" />
        </mxCell>
        <mxCell id="FBjPzx07GxaDUaOyeUmr-121" value="&lt;font style=&quot;font-size: 16px;&quot;&gt;Factors&lt;/font&gt;" style="rounded=1;whiteSpace=wrap;html=1;" parent="1" vertex="1">
          <mxGeometry x="1050" y="4499" width="83" height="41" as="geometry" />
        </mxCell>
        <mxCell id="FBjPzx07GxaDUaOyeUmr-124" style="edgeStyle=orthogonalEdgeStyle;rounded=0;orthogonalLoop=1;jettySize=auto;html=1;exitX=0;exitY=0;exitDx=0;exitDy=35;exitPerimeter=0;entryX=1;entryY=0.5;entryDx=0;entryDy=0;" parent="1" source="FBjPzx07GxaDUaOyeUmr-119" target="FBjPzx07GxaDUaOyeUmr-121" edge="1">
          <mxGeometry relative="1" as="geometry">
            <mxPoint x="1204" y="4501" as="sourcePoint" />
            <mxPoint x="1159" y="4525" as="targetPoint" />
          </mxGeometry>
        </mxCell>
        <mxCell id="FBjPzx07GxaDUaOyeUmr-127" style="edgeStyle=orthogonalEdgeStyle;rounded=0;orthogonalLoop=1;jettySize=auto;html=1;entryX=0;entryY=0;entryDx=0;entryDy=15;entryPerimeter=0;" parent="1" source="FBjPzx07GxaDUaOyeUmr-126" target="FBjPzx07GxaDUaOyeUmr-119" edge="1">
          <mxGeometry relative="1" as="geometry" />
        </mxCell>
        <mxCell id="FBjPzx07GxaDUaOyeUmr-126" value="&lt;font style=&quot;font-size: 16px;&quot;&gt;graph&lt;/font&gt;" style="rounded=1;whiteSpace=wrap;html=1;" parent="1" vertex="1">
          <mxGeometry x="1041" y="4334" width="78" height="47" as="geometry" />
        </mxCell>
        <mxCell id="FBjPzx07GxaDUaOyeUmr-138" style="edgeStyle=orthogonalEdgeStyle;rounded=0;orthogonalLoop=1;jettySize=auto;html=1;entryX=1;entryY=0.5;entryDx=0;entryDy=0;" parent="1" source="FBjPzx07GxaDUaOyeUmr-133" target="FBjPzx07GxaDUaOyeUmr-137" edge="1">
          <mxGeometry relative="1" as="geometry" />
        </mxCell>
        <mxCell id="FBjPzx07GxaDUaOyeUmr-133" value="&lt;font style=&quot;font-size: 16px;&quot;&gt;TrajectoryAnalyzer&lt;/font&gt;" style="shape=module;align=left;spacingLeft=20;align=center;verticalAlign=top;whiteSpace=wrap;html=1;" parent="1" vertex="1">
          <mxGeometry x="1422" y="4526" width="188" height="74" as="geometry" />
        </mxCell>
        <mxCell id="FBjPzx07GxaDUaOyeUmr-136" style="edgeStyle=orthogonalEdgeStyle;rounded=0;orthogonalLoop=1;jettySize=auto;html=1;entryX=0;entryY=0;entryDx=0;entryDy=15;entryPerimeter=0;" parent="1" source="FBjPzx07GxaDUaOyeUmr-135" target="FBjPzx07GxaDUaOyeUmr-133" edge="1">
          <mxGeometry relative="1" as="geometry" />
        </mxCell>
        <mxCell id="FBjPzx07GxaDUaOyeUmr-135" value="&lt;font style=&quot;font-size: 16px;&quot;&gt;poses&lt;/font&gt;" style="rounded=1;whiteSpace=wrap;html=1;" parent="1" vertex="1">
          <mxGeometry x="1313" y="4512" width="51" height="26" as="geometry" />
        </mxCell>
        <mxCell id="FBjPzx07GxaDUaOyeUmr-137" value="&lt;span style=&quot;font-size: 16px;&quot;&gt;candidates&lt;/span&gt;" style="rounded=1;whiteSpace=wrap;html=1;" parent="1" vertex="1">
          <mxGeometry x="1299" y="4574" width="89" height="33" as="geometry" />
        </mxCell>
        <mxCell id="FBjPzx07GxaDUaOyeUmr-139" style="edgeStyle=orthogonalEdgeStyle;rounded=0;orthogonalLoop=1;jettySize=auto;html=1;entryX=1;entryY=0.5;entryDx=0;entryDy=0;" parent="1" source="FBjPzx07GxaDUaOyeUmr-140" target="FBjPzx07GxaDUaOyeUmr-143" edge="1">
          <mxGeometry relative="1" as="geometry" />
        </mxCell>
        <mxCell id="FBjPzx07GxaDUaOyeUmr-140" value="&lt;span style=&quot;font-size: 16px;&quot;&gt;LidarScanContext&lt;/span&gt;" style="shape=module;align=left;spacingLeft=20;align=center;verticalAlign=top;whiteSpace=wrap;html=1;" parent="1" vertex="1">
          <mxGeometry x="1422" y="4747" width="188" height="74" as="geometry" />
        </mxCell>
        <mxCell id="FBjPzx07GxaDUaOyeUmr-141" style="edgeStyle=orthogonalEdgeStyle;rounded=0;orthogonalLoop=1;jettySize=auto;html=1;entryX=0;entryY=0;entryDx=0;entryDy=15;entryPerimeter=0;exitX=1;exitY=0.5;exitDx=0;exitDy=0;" parent="1" source="FBjPzx07GxaDUaOyeUmr-162" target="FBjPzx07GxaDUaOyeUmr-140" edge="1">
          <mxGeometry relative="1" as="geometry">
            <mxPoint x="1353.9999999999995" y="4746" as="sourcePoint" />
          </mxGeometry>
        </mxCell>
        <mxCell id="FBjPzx07GxaDUaOyeUmr-143" value="&lt;span style=&quot;font-size: 16px;&quot;&gt;candidates&lt;/span&gt;" style="rounded=1;whiteSpace=wrap;html=1;" parent="1" vertex="1">
          <mxGeometry x="1299" y="4793" width="89" height="33" as="geometry" />
        </mxCell>
        <mxCell id="FBjPzx07GxaDUaOyeUmr-146" style="edgeStyle=orthogonalEdgeStyle;rounded=0;orthogonalLoop=1;jettySize=auto;html=1;entryX=0;entryY=0;entryDx=0;entryDy=15;entryPerimeter=0;" parent="1" source="FBjPzx07GxaDUaOyeUmr-145" target="FBjPzx07GxaDUaOyeUmr-140" edge="1">
          <mxGeometry relative="1" as="geometry" />
        </mxCell>
        <mxCell id="FBjPzx07GxaDUaOyeUmr-145" value="&lt;span style=&quot;font-size: 16px;&quot;&gt;candidates&lt;/span&gt;" style="rounded=1;whiteSpace=wrap;html=1;" parent="1" vertex="1">
          <mxGeometry x="1287" y="4691" width="89" height="33" as="geometry" />
        </mxCell>
        <mxCell id="FBjPzx07GxaDUaOyeUmr-147" style="edgeStyle=orthogonalEdgeStyle;rounded=0;orthogonalLoop=1;jettySize=auto;html=1;entryX=1;entryY=0.5;entryDx=0;entryDy=0;" parent="1" source="FBjPzx07GxaDUaOyeUmr-148" target="FBjPzx07GxaDUaOyeUmr-151" edge="1">
          <mxGeometry relative="1" as="geometry" />
        </mxCell>
        <mxCell id="FBjPzx07GxaDUaOyeUmr-148" value="&lt;span style=&quot;font-size: 16px;&quot;&gt;CameraImgContext&lt;/span&gt;" style="shape=module;align=left;spacingLeft=20;align=center;verticalAlign=top;whiteSpace=wrap;html=1;" parent="1" vertex="1">
          <mxGeometry x="1422" y="4932" width="188" height="74" as="geometry" />
        </mxCell>
        <mxCell id="FBjPzx07GxaDUaOyeUmr-149" style="edgeStyle=orthogonalEdgeStyle;rounded=0;orthogonalLoop=1;jettySize=auto;html=1;entryX=0;entryY=0;entryDx=0;entryDy=15;entryPerimeter=0;exitX=1;exitY=0.5;exitDx=0;exitDy=0;" parent="1" source="FBjPzx07GxaDUaOyeUmr-161" target="FBjPzx07GxaDUaOyeUmr-148" edge="1">
          <mxGeometry relative="1" as="geometry">
            <mxPoint x="1353.9999999999995" y="4931" as="sourcePoint" />
          </mxGeometry>
        </mxCell>
        <mxCell id="FBjPzx07GxaDUaOyeUmr-151" value="&lt;span style=&quot;font-size: 16px;&quot;&gt;candidates&lt;/span&gt;" style="rounded=1;whiteSpace=wrap;html=1;" parent="1" vertex="1">
          <mxGeometry x="1299" y="4971" width="89" height="33" as="geometry" />
        </mxCell>
        <mxCell id="FBjPzx07GxaDUaOyeUmr-152" style="edgeStyle=orthogonalEdgeStyle;rounded=0;orthogonalLoop=1;jettySize=auto;html=1;entryX=0;entryY=0;entryDx=0;entryDy=15;entryPerimeter=0;" parent="1" source="FBjPzx07GxaDUaOyeUmr-153" target="FBjPzx07GxaDUaOyeUmr-148" edge="1">
          <mxGeometry relative="1" as="geometry" />
        </mxCell>
        <mxCell id="FBjPzx07GxaDUaOyeUmr-153" value="&lt;span style=&quot;font-size: 16px;&quot;&gt;candidates&lt;/span&gt;" style="rounded=1;whiteSpace=wrap;html=1;" parent="1" vertex="1">
          <mxGeometry x="1287" y="4876" width="89" height="33" as="geometry" />
        </mxCell>
        <mxCell id="FBjPzx07GxaDUaOyeUmr-154" style="edgeStyle=orthogonalEdgeStyle;rounded=0;orthogonalLoop=1;jettySize=auto;html=1;entryX=1;entryY=0.5;entryDx=0;entryDy=0;" parent="1" source="FBjPzx07GxaDUaOyeUmr-155" target="FBjPzx07GxaDUaOyeUmr-158" edge="1">
          <mxGeometry relative="1" as="geometry" />
        </mxCell>
        <mxCell id="FBjPzx07GxaDUaOyeUmr-155" value="&lt;span style=&quot;font-size: 16px;&quot;&gt;AnyContext&lt;/span&gt;" style="shape=module;align=left;spacingLeft=20;align=center;verticalAlign=top;whiteSpace=wrap;html=1;" parent="1" vertex="1">
          <mxGeometry x="1422" y="5114.44" width="188" height="74" as="geometry" />
        </mxCell>
        <mxCell id="FBjPzx07GxaDUaOyeUmr-156" style="edgeStyle=orthogonalEdgeStyle;rounded=0;orthogonalLoop=1;jettySize=auto;html=1;entryX=0;entryY=0;entryDx=0;entryDy=15;entryPerimeter=0;" parent="1" source="FBjPzx07GxaDUaOyeUmr-157" target="FBjPzx07GxaDUaOyeUmr-155" edge="1">
          <mxGeometry relative="1" as="geometry" />
        </mxCell>
        <mxCell id="FBjPzx07GxaDUaOyeUmr-157" value="&lt;font style=&quot;font-size: 16px;&quot;&gt;measurements&lt;/font&gt;" style="rounded=1;whiteSpace=wrap;html=1;" parent="1" vertex="1">
          <mxGeometry x="1264" y="5100.44" width="112" height="26" as="geometry" />
        </mxCell>
        <mxCell id="FBjPzx07GxaDUaOyeUmr-158" value="&lt;span style=&quot;font-size: 16px;&quot;&gt;candidates&lt;/span&gt;" style="rounded=1;whiteSpace=wrap;html=1;" parent="1" vertex="1">
          <mxGeometry x="1294" y="5155.44" width="89" height="33" as="geometry" />
        </mxCell>
        <mxCell id="FBjPzx07GxaDUaOyeUmr-159" style="edgeStyle=orthogonalEdgeStyle;rounded=0;orthogonalLoop=1;jettySize=auto;html=1;entryX=0;entryY=0;entryDx=0;entryDy=15;entryPerimeter=0;" parent="1" source="FBjPzx07GxaDUaOyeUmr-160" target="FBjPzx07GxaDUaOyeUmr-155" edge="1">
          <mxGeometry relative="1" as="geometry" />
        </mxCell>
        <mxCell id="FBjPzx07GxaDUaOyeUmr-160" value="&lt;span style=&quot;font-size: 16px;&quot;&gt;candidates&lt;/span&gt;" style="rounded=1;whiteSpace=wrap;html=1;" parent="1" vertex="1">
          <mxGeometry x="1287" y="5058.44" width="89" height="33" as="geometry" />
        </mxCell>
        <mxCell id="FBjPzx07GxaDUaOyeUmr-161" value="&lt;font style=&quot;font-size: 16px;&quot;&gt;measurements&lt;/font&gt;" style="rounded=1;whiteSpace=wrap;html=1;" parent="1" vertex="1">
          <mxGeometry x="1264" y="4917.45" width="112" height="26" as="geometry" />
        </mxCell>
        <mxCell id="FBjPzx07GxaDUaOyeUmr-162" value="&lt;font style=&quot;font-size: 16px;&quot;&gt;measurements&lt;/font&gt;" style="rounded=1;whiteSpace=wrap;html=1;" parent="1" vertex="1">
          <mxGeometry x="1264" y="4733" width="112" height="26" as="geometry" />
        </mxCell>
        <mxCell id="FBjPzx07GxaDUaOyeUmr-163" value="&lt;i&gt;Candidates as input are optional*&lt;/i&gt;" style="text;html=1;strokeColor=none;fillColor=none;align=center;verticalAlign=middle;whiteSpace=wrap;rounded=0;" parent="1" vertex="1">
          <mxGeometry x="1456" y="4661" width="185" height="30" as="geometry" />
        </mxCell>
        <mxCell id="FBjPzx07GxaDUaOyeUmr-164" value="Candidate" style="swimlane;html=1;fontStyle=1;align=center;verticalAlign=top;childLayout=stackLayout;horizontal=1;startSize=26;horizontalStack=0;resizeParent=1;resizeLast=0;collapsible=1;marginBottom=0;swimlaneFillColor=#ffffff;rounded=0;shadow=0;comic=0;labelBackgroundColor=none;strokeWidth=1;fillColor=none;fontFamily=Verdana;fontSize=12" parent="1" vertex="1">
          <mxGeometry x="1737" y="4526" width="170" height="148" as="geometry" />
        </mxCell>
        <mxCell id="FBjPzx07GxaDUaOyeUmr-165" value="+ pose1: graph_pose" style="text;html=1;strokeColor=none;fillColor=none;align=left;verticalAlign=top;spacingLeft=4;spacingRight=4;whiteSpace=wrap;overflow=hidden;rotatable=0;points=[[0,0.5],[1,0.5]];portConstraint=eastwest;" parent="FBjPzx07GxaDUaOyeUmr-164" vertex="1">
          <mxGeometry y="26" width="170" height="24" as="geometry" />
        </mxCell>
        <mxCell id="FBjPzx07GxaDUaOyeUmr-166" value="+ pose2: graph_pose" style="text;html=1;strokeColor=none;fillColor=none;align=left;verticalAlign=top;spacingLeft=4;spacingRight=4;whiteSpace=wrap;overflow=hidden;rotatable=0;points=[[0,0.5],[1,0.5]];portConstraint=eastwest;" parent="FBjPzx07GxaDUaOyeUmr-164" vertex="1">
          <mxGeometry y="50" width="170" height="20" as="geometry" />
        </mxCell>
        <mxCell id="FBjPzx07GxaDUaOyeUmr-167" value="+ relative_tf: array" style="text;html=1;strokeColor=none;fillColor=none;align=left;verticalAlign=top;spacingLeft=4;spacingRight=4;whiteSpace=wrap;overflow=hidden;rotatable=0;points=[[0,0.5],[1,0.5]];portConstraint=eastwest;" parent="FBjPzx07GxaDUaOyeUmr-164" vertex="1">
          <mxGeometry y="70" width="170" height="20" as="geometry" />
        </mxCell>
        <mxCell id="FBjPzx07GxaDUaOyeUmr-169" value="+ score: float" style="text;html=1;strokeColor=none;fillColor=none;align=left;verticalAlign=top;spacingLeft=4;spacingRight=4;whiteSpace=wrap;overflow=hidden;rotatable=0;points=[[0,0.5],[1,0.5]];portConstraint=eastwest;" parent="FBjPzx07GxaDUaOyeUmr-164" vertex="1">
          <mxGeometry y="90" width="170" height="20" as="geometry" />
        </mxCell>
        <mxCell id="FBjPzx07GxaDUaOyeUmr-168" value="" style="line;html=1;strokeWidth=1;fillColor=none;align=left;verticalAlign=middle;spacingTop=-1;spacingLeft=3;spacingRight=3;rotatable=0;labelPosition=right;points=[];portConstraint=eastwest;" parent="FBjPzx07GxaDUaOyeUmr-164" vertex="1">
          <mxGeometry y="110" width="170" height="8" as="geometry" />
        </mxCell>
        <mxCell id="FBjPzx07GxaDUaOyeUmr-170" value="&lt;span style=&quot;font-size: 22px;&quot;&gt;Anomaly Detector&lt;/span&gt;" style="shape=module;align=left;spacingLeft=20;align=center;verticalAlign=top;whiteSpace=wrap;html=1;" parent="1" vertex="1">
          <mxGeometry x="420.6399999999999" y="4444.5" width="475" height="514.5" as="geometry" />
        </mxCell>
        <mxCell id="FBjPzx07GxaDUaOyeUmr-173" value="&lt;font style=&quot;font-size: 16px;&quot;&gt;same as input&lt;/font&gt;" style="rounded=1;whiteSpace=wrap;html=1;" parent="1" vertex="1">
          <mxGeometry x="217.63999999999987" y="4489" width="117" height="41" as="geometry" />
        </mxCell>
        <mxCell id="FBjPzx07GxaDUaOyeUmr-174" style="edgeStyle=orthogonalEdgeStyle;rounded=0;orthogonalLoop=1;jettySize=auto;html=1;exitX=0;exitY=0;exitDx=0;exitDy=35;exitPerimeter=0;entryX=1;entryY=0.5;entryDx=0;entryDy=0;" parent="1" source="FBjPzx07GxaDUaOyeUmr-170" target="FBjPzx07GxaDUaOyeUmr-173" edge="1">
          <mxGeometry relative="1" as="geometry">
            <mxPoint x="431.6399999999999" y="4510.5" as="sourcePoint" />
            <mxPoint x="386.6399999999999" y="4534.5" as="targetPoint" />
          </mxGeometry>
        </mxCell>
        <mxCell id="FBjPzx07GxaDUaOyeUmr-175" style="edgeStyle=orthogonalEdgeStyle;rounded=0;orthogonalLoop=1;jettySize=auto;html=1;entryX=0;entryY=0;entryDx=0;entryDy=15;entryPerimeter=0;" parent="1" source="FBjPzx07GxaDUaOyeUmr-176" target="FBjPzx07GxaDUaOyeUmr-170" edge="1">
          <mxGeometry relative="1" as="geometry" />
        </mxCell>
        <mxCell id="FBjPzx07GxaDUaOyeUmr-176" value="&lt;font style=&quot;font-size: 16px;&quot;&gt;Raw measurements/&lt;br&gt;Loop candidates/&lt;br&gt;processed measurements&lt;br&gt;&lt;/font&gt;" style="rounded=1;whiteSpace=wrap;html=1;" parent="1" vertex="1">
          <mxGeometry x="171.63999999999987" y="4302.5" width="209" height="98.5" as="geometry" />
        </mxCell>
        <mxCell id="FBjPzx07GxaDUaOyeUmr-177" style="edgeStyle=orthogonalEdgeStyle;rounded=0;orthogonalLoop=1;jettySize=auto;html=1;entryX=1;entryY=0.5;entryDx=0;entryDy=0;" parent="1" source="FBjPzx07GxaDUaOyeUmr-178" target="FBjPzx07GxaDUaOyeUmr-181" edge="1">
          <mxGeometry relative="1" as="geometry" />
        </mxCell>
        <mxCell id="FBjPzx07GxaDUaOyeUmr-178" value="&lt;font style=&quot;font-size: 16px;&quot;&gt;Model1&lt;/font&gt;" style="shape=module;align=left;spacingLeft=20;align=center;verticalAlign=top;whiteSpace=wrap;html=1;" parent="1" vertex="1">
          <mxGeometry x="649.6399999999999" y="4535.5" width="188" height="74" as="geometry" />
        </mxCell>
        <mxCell id="FBjPzx07GxaDUaOyeUmr-179" style="edgeStyle=orthogonalEdgeStyle;rounded=0;orthogonalLoop=1;jettySize=auto;html=1;entryX=0;entryY=0;entryDx=0;entryDy=15;entryPerimeter=0;" parent="1" source="FBjPzx07GxaDUaOyeUmr-180" target="FBjPzx07GxaDUaOyeUmr-178" edge="1">
          <mxGeometry relative="1" as="geometry" />
        </mxCell>
        <mxCell id="FBjPzx07GxaDUaOyeUmr-180" value="&lt;span style=&quot;font-size: 16px;&quot;&gt;RawMeasurement&lt;/span&gt;" style="rounded=1;whiteSpace=wrap;html=1;" parent="1" vertex="1">
          <mxGeometry x="464.6399999999999" y="4521" width="137" height="26" as="geometry" />
        </mxCell>
        <mxCell id="FBjPzx07GxaDUaOyeUmr-181" value="&lt;span style=&quot;font-size: 16px;&quot;&gt;label&lt;/span&gt;" style="rounded=1;whiteSpace=wrap;html=1;" parent="1" vertex="1">
          <mxGeometry x="498.6399999999999" y="4561.5" width="89" height="22" as="geometry" />
        </mxCell>
        <mxCell id="FBjPzx07GxaDUaOyeUmr-215" style="edgeStyle=orthogonalEdgeStyle;rounded=0;orthogonalLoop=1;jettySize=auto;html=1;entryX=1;entryY=0.5;entryDx=0;entryDy=0;" parent="1" source="FBjPzx07GxaDUaOyeUmr-216" target="FBjPzx07GxaDUaOyeUmr-219" edge="1">
          <mxGeometry relative="1" as="geometry" />
        </mxCell>
        <mxCell id="FBjPzx07GxaDUaOyeUmr-216" value="&lt;font style=&quot;font-size: 16px;&quot;&gt;Model2&lt;/font&gt;" style="shape=module;align=left;spacingLeft=20;align=center;verticalAlign=top;whiteSpace=wrap;html=1;" parent="1" vertex="1">
          <mxGeometry x="649.6399999999999" y="4698" width="188" height="74" as="geometry" />
        </mxCell>
        <mxCell id="FBjPzx07GxaDUaOyeUmr-217" style="edgeStyle=orthogonalEdgeStyle;rounded=0;orthogonalLoop=1;jettySize=auto;html=1;entryX=0;entryY=0;entryDx=0;entryDy=15;entryPerimeter=0;" parent="1" source="FBjPzx07GxaDUaOyeUmr-218" target="FBjPzx07GxaDUaOyeUmr-216" edge="1">
          <mxGeometry relative="1" as="geometry" />
        </mxCell>
        <mxCell id="FBjPzx07GxaDUaOyeUmr-218" value="&lt;span style=&quot;font-size: 16px;&quot;&gt;ProcessedMeasurement&lt;/span&gt;" style="rounded=1;whiteSpace=wrap;html=1;" parent="1" vertex="1">
          <mxGeometry x="434.6399999999999" y="4675" width="182" height="26" as="geometry" />
        </mxCell>
        <mxCell id="FBjPzx07GxaDUaOyeUmr-219" value="&lt;span style=&quot;font-size: 16px;&quot;&gt;label&lt;/span&gt;" style="rounded=1;whiteSpace=wrap;html=1;" parent="1" vertex="1">
          <mxGeometry x="498.6399999999999" y="4724" width="89" height="22" as="geometry" />
        </mxCell>
        <mxCell id="FBjPzx07GxaDUaOyeUmr-221" style="edgeStyle=orthogonalEdgeStyle;rounded=0;orthogonalLoop=1;jettySize=auto;html=1;entryX=1;entryY=0.5;entryDx=0;entryDy=0;" parent="1" source="FBjPzx07GxaDUaOyeUmr-222" target="FBjPzx07GxaDUaOyeUmr-225" edge="1">
          <mxGeometry relative="1" as="geometry" />
        </mxCell>
        <mxCell id="FBjPzx07GxaDUaOyeUmr-222" value="&lt;font style=&quot;font-size: 16px;&quot;&gt;Model3&lt;/font&gt;" style="shape=module;align=left;spacingLeft=20;align=center;verticalAlign=top;whiteSpace=wrap;html=1;" parent="1" vertex="1">
          <mxGeometry x="649.6399999999999" y="4856" width="188" height="74" as="geometry" />
        </mxCell>
        <mxCell id="FBjPzx07GxaDUaOyeUmr-223" style="edgeStyle=orthogonalEdgeStyle;rounded=0;orthogonalLoop=1;jettySize=auto;html=1;entryX=0;entryY=0;entryDx=0;entryDy=15;entryPerimeter=0;" parent="1" source="FBjPzx07GxaDUaOyeUmr-224" target="FBjPzx07GxaDUaOyeUmr-222" edge="1">
          <mxGeometry relative="1" as="geometry" />
        </mxCell>
        <mxCell id="FBjPzx07GxaDUaOyeUmr-224" value="&lt;span style=&quot;font-size: 16px;&quot;&gt;something else&lt;/span&gt;" style="rounded=1;whiteSpace=wrap;html=1;" parent="1" vertex="1">
          <mxGeometry x="434.6399999999999" y="4833" width="182" height="26" as="geometry" />
        </mxCell>
        <mxCell id="FBjPzx07GxaDUaOyeUmr-225" value="&lt;span style=&quot;font-size: 16px;&quot;&gt;label&lt;/span&gt;" style="rounded=1;whiteSpace=wrap;html=1;" parent="1" vertex="1">
          <mxGeometry x="498.6399999999999" y="4882" width="89" height="22" as="geometry" />
        </mxCell>
        <mxCell id="FBjPzx07GxaDUaOyeUmr-227" style="edgeStyle=orthogonalEdgeStyle;rounded=0;orthogonalLoop=1;jettySize=auto;html=1;entryX=0;entryY=0;entryDx=0;entryDy=15;entryPerimeter=0;" parent="1" source="FBjPzx07GxaDUaOyeUmr-226" target="FBjPzx07GxaDUaOyeUmr-170" edge="1">
          <mxGeometry relative="1" as="geometry" />
        </mxCell>
        <mxCell id="FBjPzx07GxaDUaOyeUmr-226" value="&lt;span style=&quot;font-size: 16px;&quot;&gt;graph&lt;/span&gt;" style="rounded=1;whiteSpace=wrap;html=1;" parent="1" vertex="1">
          <mxGeometry x="263.6399999999999" y="4231" width="117" height="41" as="geometry" />
        </mxCell>
        <mxCell id="UJDx8VH_fSjyyaCmhiH3-3" style="edgeStyle=orthogonalEdgeStyle;rounded=0;orthogonalLoop=1;jettySize=auto;html=1;entryX=0;entryY=0;entryDx=0;entryDy=15;entryPerimeter=0;" parent="1" source="UJDx8VH_fSjyyaCmhiH3-2" target="UJDx8VH_fSjyyaCmhiH3-1" edge="1">
          <mxGeometry relative="1" as="geometry" />
        </mxCell>
        <mxCell id="UJDx8VH_fSjyyaCmhiH3-2" value="&lt;font style=&quot;font-size: 16px;&quot;&gt;Data Batch&lt;/font&gt;" style="rounded=1;whiteSpace=wrap;html=1;fillColor=#ffe6cc;strokeColor=#d79b00;" parent="1" vertex="1">
          <mxGeometry x="-1036" y="2482" width="78" height="47" as="geometry" />
        </mxCell>
        <mxCell id="UJDx8VH_fSjyyaCmhiH3-4" value="" style="shape=cube;whiteSpace=wrap;html=1;boundedLbl=1;backgroundOutline=1;darkOpacity=0.05;darkOpacity2=0.1;" parent="1" vertex="1">
          <mxGeometry x="-854" y="2636" width="638" height="34" as="geometry" />
        </mxCell>
        <mxCell id="UJDx8VH_fSjyyaCmhiH3-5" value="el.1" style="shape=cube;whiteSpace=wrap;html=1;boundedLbl=1;backgroundOutline=1;darkOpacity=0.05;darkOpacity2=0.1;fillColor=#60a917;fontColor=#ffffff;strokeColor=#2D7600;" parent="1" vertex="1">
          <mxGeometry x="-325" y="2608" width="48" height="48" as="geometry" />
        </mxCell>
        <mxCell id="UJDx8VH_fSjyyaCmhiH3-6" value="el.2" style="shape=cube;whiteSpace=wrap;html=1;boundedLbl=1;backgroundOutline=1;darkOpacity=0.05;darkOpacity2=0.1;fillColor=#6a00ff;fontColor=#ffffff;strokeColor=#3700CC;" parent="1" vertex="1">
          <mxGeometry x="-416" y="2608" width="48" height="48" as="geometry" />
        </mxCell>
        <mxCell id="UJDx8VH_fSjyyaCmhiH3-7" value="el.3" style="shape=cube;whiteSpace=wrap;html=1;boundedLbl=1;backgroundOutline=1;darkOpacity=0.05;darkOpacity2=0.1;fillColor=#d80073;fontColor=#ffffff;strokeColor=#A50040;" parent="1" vertex="1">
          <mxGeometry x="-507" y="2608" width="48" height="48" as="geometry" />
        </mxCell>
        <mxCell id="UJDx8VH_fSjyyaCmhiH3-9" value="el.4" style="shape=cube;whiteSpace=wrap;html=1;boundedLbl=1;backgroundOutline=1;darkOpacity=0.05;darkOpacity2=0.1;fillColor=#60a917;fontColor=#ffffff;strokeColor=#2D7600;" parent="1" vertex="1">
          <mxGeometry x="-597" y="2608" width="48" height="48" as="geometry" />
        </mxCell>
        <mxCell id="UJDx8VH_fSjyyaCmhiH3-10" value="el.N" style="shape=cube;whiteSpace=wrap;html=1;boundedLbl=1;backgroundOutline=1;darkOpacity=0.05;darkOpacity2=0.1;fillColor=#1ba1e2;fontColor=#ffffff;strokeColor=#006EAF;" parent="1" vertex="1">
          <mxGeometry x="-687" y="2608" width="48" height="48" as="geometry" />
        </mxCell>
        <mxCell id="UJDx8VH_fSjyyaCmhiH3-37" style="edgeStyle=orthogonalEdgeStyle;rounded=0;orthogonalLoop=1;jettySize=auto;html=1;" parent="1" target="UJDx8VH_fSjyyaCmhiH3-22" edge="1">
          <mxGeometry relative="1" as="geometry">
            <mxPoint x="-291.5454545454545" y="2718" as="sourcePoint" />
            <Array as="points">
              <mxPoint x="-292" y="2736" />
              <mxPoint x="-432" y="2736" />
            </Array>
          </mxGeometry>
        </mxCell>
        <mxCell id="UJDx8VH_fSjyyaCmhiH3-38" style="edgeStyle=orthogonalEdgeStyle;rounded=0;orthogonalLoop=1;jettySize=auto;html=1;" parent="1" target="UJDx8VH_fSjyyaCmhiH3-28" edge="1">
          <mxGeometry relative="1" as="geometry">
            <mxPoint x="-291.5454545454545" y="2718" as="sourcePoint" />
            <Array as="points">
              <mxPoint x="-292" y="2737" />
              <mxPoint x="-572" y="2737" />
            </Array>
          </mxGeometry>
        </mxCell>
        <mxCell id="UJDx8VH_fSjyyaCmhiH3-39" style="edgeStyle=orthogonalEdgeStyle;rounded=0;orthogonalLoop=1;jettySize=auto;html=1;" parent="1" target="UJDx8VH_fSjyyaCmhiH3-25" edge="1">
          <mxGeometry relative="1" as="geometry">
            <mxPoint x="-291.5454545454545" y="2718" as="sourcePoint" />
            <Array as="points">
              <mxPoint x="-292" y="2737" />
              <mxPoint x="-712" y="2737" />
            </Array>
          </mxGeometry>
        </mxCell>
        <mxCell id="UJDx8VH_fSjyyaCmhiH3-40" style="edgeStyle=orthogonalEdgeStyle;rounded=0;orthogonalLoop=1;jettySize=auto;html=1;" parent="1" target="UJDx8VH_fSjyyaCmhiH3-23" edge="1">
          <mxGeometry relative="1" as="geometry">
            <mxPoint x="-291.5454545454545" y="2718" as="sourcePoint" />
          </mxGeometry>
        </mxCell>
        <mxCell id="UJDx8VH_fSjyyaCmhiH3-41" style="edgeStyle=orthogonalEdgeStyle;rounded=0;orthogonalLoop=1;jettySize=auto;html=1;" parent="1" target="UJDx8VH_fSjyyaCmhiH3-24" edge="1">
          <mxGeometry relative="1" as="geometry">
            <mxPoint x="-291.5454545454545" y="2718" as="sourcePoint" />
            <Array as="points">
              <mxPoint x="-292" y="2737" />
              <mxPoint x="-152" y="2737" />
            </Array>
          </mxGeometry>
        </mxCell>
        <mxCell id="UJDx8VH_fSjyyaCmhiH3-42" style="edgeStyle=orthogonalEdgeStyle;rounded=0;orthogonalLoop=1;jettySize=auto;html=1;" parent="1" target="UJDx8VH_fSjyyaCmhiH3-26" edge="1">
          <mxGeometry relative="1" as="geometry">
            <mxPoint x="-291.5454545454545" y="2718" as="sourcePoint" />
            <Array as="points">
              <mxPoint x="-292" y="2737" />
              <mxPoint x="-17" y="2737" />
            </Array>
          </mxGeometry>
        </mxCell>
        <mxCell id="UJDx8VH_fSjyyaCmhiH3-43" style="edgeStyle=orthogonalEdgeStyle;rounded=0;orthogonalLoop=1;jettySize=auto;html=1;" parent="1" target="UJDx8VH_fSjyyaCmhiH3-27" edge="1">
          <mxGeometry relative="1" as="geometry">
            <mxPoint x="-291.5454545454545" y="2718" as="sourcePoint" />
            <Array as="points">
              <mxPoint x="-292" y="2736" />
              <mxPoint x="121" y="2736" />
            </Array>
          </mxGeometry>
        </mxCell>
        <mxCell id="UJDx8VH_fSjyyaCmhiH3-12" value="" style="shape=loopLimit;whiteSpace=wrap;html=1;" parent="1" vertex="1">
          <mxGeometry x="-130.25" y="2644.09" width="91" height="28" as="geometry" />
        </mxCell>
        <mxCell id="UJDx8VH_fSjyyaCmhiH3-14" value="" style="rounded=0;whiteSpace=wrap;html=1;rotation=-60;" parent="1" vertex="1">
          <mxGeometry x="-92.25" y="2622.59" width="41" height="9" as="geometry" />
        </mxCell>
        <mxCell id="UJDx8VH_fSjyyaCmhiH3-15" value="" style="rounded=0;whiteSpace=wrap;html=1;rotation=-120;" parent="1" vertex="1">
          <mxGeometry x="-104.25" y="2581.66" width="57" height="9" as="geometry" />
        </mxCell>
        <mxCell id="UJDx8VH_fSjyyaCmhiH3-16" value="" style="rounded=0;whiteSpace=wrap;html=1;rotation=-15;" parent="1" vertex="1">
          <mxGeometry x="-126.25" y="2562.09" width="41" height="9" as="geometry" />
        </mxCell>
        <mxCell id="UJDx8VH_fSjyyaCmhiH3-17" value="" style="rounded=0;whiteSpace=wrap;html=1;rotation=25;" parent="1" vertex="1">
          <mxGeometry x="-147" y="2565.4700000000003" width="25" height="4" as="geometry" />
        </mxCell>
        <mxCell id="UJDx8VH_fSjyyaCmhiH3-18" value="" style="rounded=0;whiteSpace=wrap;html=1;rotation=-60;" parent="1" vertex="1">
          <mxGeometry x="-157" y="2568.0600000000004" width="18" height="4" as="geometry" />
        </mxCell>
        <mxCell id="UJDx8VH_fSjyyaCmhiH3-19" value="" style="rounded=0;whiteSpace=wrap;html=1;rotation=-75;" parent="1" vertex="1">
          <mxGeometry x="-138.16999999999996" y="2579.1800000000003" width="22.75" height="4" as="geometry" />
        </mxCell>
        <mxCell id="UJDx8VH_fSjyyaCmhiH3-20" value="" style="rounded=0;whiteSpace=wrap;html=1;rotation=0;" parent="1" vertex="1">
          <mxGeometry x="-147" y="2590.66" width="19" height="4" as="geometry" />
        </mxCell>
        <mxCell id="UJDx8VH_fSjyyaCmhiH3-21" value="&lt;font style=&quot;font-size: 16px;&quot;&gt;Data Batch&lt;/font&gt;" style="rounded=1;whiteSpace=wrap;html=1;fillColor=#ffe6cc;strokeColor=#d79b00;" parent="1" vertex="1">
          <mxGeometry x="-833" y="2562.09" width="129" height="47" as="geometry" />
        </mxCell>
        <mxCell id="UJDx8VH_fSjyyaCmhiH3-22" value="&lt;font style=&quot;font-size: 16px;&quot;&gt;Camera Odometry&lt;/font&gt;" style="rounded=0;whiteSpace=wrap;html=1;fillColor=#d80073;fontColor=#ffffff;strokeColor=#A50040;" parent="1" vertex="1">
          <mxGeometry x="-492" y="2796" width="120" height="60" as="geometry" />
        </mxCell>
        <mxCell id="UJDx8VH_fSjyyaCmhiH3-23" value="&lt;font style=&quot;font-size: 16px;&quot;&gt;Lidar&lt;br&gt;&amp;nbsp;Odometry&lt;/font&gt;" style="rounded=0;whiteSpace=wrap;html=1;fillColor=#f0a30a;fontColor=#000000;strokeColor=#BD7000;" parent="1" vertex="1">
          <mxGeometry x="-352" y="2793" width="120" height="60" as="geometry" />
        </mxCell>
        <mxCell id="UJDx8VH_fSjyyaCmhiH3-24" value="&lt;font style=&quot;font-size: 16px;&quot;&gt;Wheel Odometry&lt;/font&gt;" style="rounded=0;whiteSpace=wrap;html=1;fillColor=#6a00ff;fontColor=#ffffff;strokeColor=#3700CC;" parent="1" vertex="1">
          <mxGeometry x="-212.5" y="2793" width="120" height="60" as="geometry" />
        </mxCell>
        <mxCell id="UJDx8VH_fSjyyaCmhiH3-25" value="&lt;font style=&quot;font-size: 16px;&quot;&gt;GNSS&lt;/font&gt;" style="rounded=0;whiteSpace=wrap;html=1;fillColor=#a20025;fontColor=#ffffff;strokeColor=#6F0000;" parent="1" vertex="1">
          <mxGeometry x="-772" y="2796" width="120" height="60" as="geometry" />
        </mxCell>
        <mxCell id="UJDx8VH_fSjyyaCmhiH3-26" value="&lt;font style=&quot;font-size: 16px;&quot;&gt;IMU &lt;br&gt;Odometry&lt;br&gt;&lt;/font&gt;" style="rounded=0;whiteSpace=wrap;html=1;fillColor=#60a917;fontColor=#ffffff;strokeColor=#2D7600;" parent="1" vertex="1">
          <mxGeometry x="-77" y="2793" width="120" height="60" as="geometry" />
        </mxCell>
        <mxCell id="UJDx8VH_fSjyyaCmhiH3-27" value="&lt;font style=&quot;font-size: 16px;&quot;&gt;Any...&lt;br&gt;&lt;/font&gt;" style="rounded=0;whiteSpace=wrap;html=1;" parent="1" vertex="1">
          <mxGeometry x="61" y="2793" width="120" height="60" as="geometry" />
        </mxCell>
        <mxCell id="UJDx8VH_fSjyyaCmhiH3-28" value="&lt;font style=&quot;font-size: 16px;&quot;&gt;Landmark&amp;nbsp;&lt;br&gt;detector&lt;br&gt;&lt;/font&gt;" style="rounded=0;whiteSpace=wrap;html=1;fillColor=#1ba1e2;fontColor=#ffffff;strokeColor=#006EAF;" parent="1" vertex="1">
          <mxGeometry x="-632" y="2793" width="120" height="60" as="geometry" />
        </mxCell>
        <mxCell id="UJDx8VH_fSjyyaCmhiH3-45" value="&lt;font style=&quot;font-size: 20px;&quot;&gt;External modules&lt;br style=&quot;border-color: var(--border-color); text-align: center;&quot;&gt;&lt;span style=&quot;text-align: center;&quot;&gt;API&lt;/span&gt;&lt;/font&gt;" style="shape=curlyBracket;whiteSpace=wrap;html=1;rounded=1;labelPosition=left;verticalLabelPosition=middle;align=right;verticalAlign=middle;" parent="1" vertex="1">
          <mxGeometry x="-803" y="2781.5" width="20" height="89" as="geometry" />
        </mxCell>
        <mxCell id="UJDx8VH_fSjyyaCmhiH3-46" value="&lt;span style=&quot;font-size: 22px;&quot;&gt;SubMap Builder (ABC)&lt;br&gt;(decides when to add a new graph node)&lt;br&gt;&lt;/span&gt;" style="shape=module;align=left;spacingLeft=20;align=center;verticalAlign=top;whiteSpace=wrap;html=1;" parent="1" vertex="1">
          <mxGeometry x="502" y="1958" width="927" height="652" as="geometry" />
        </mxCell>
        <mxCell id="UJDx8VH_fSjyyaCmhiH3-48" style="edgeStyle=orthogonalEdgeStyle;rounded=0;orthogonalLoop=1;jettySize=auto;html=1;entryX=0;entryY=0;entryDx=0;entryDy=15;entryPerimeter=0;" parent="1" source="UJDx8VH_fSjyyaCmhiH3-47" target="UJDx8VH_fSjyyaCmhiH3-46" edge="1">
          <mxGeometry relative="1" as="geometry" />
        </mxCell>
        <mxCell id="UJDx8VH_fSjyyaCmhiH3-47" value="&lt;span style=&quot;font-size: 22px;&quot;&gt;Criterion&lt;br&gt;(Conditions to add new node to graph)&lt;br&gt;&lt;/span&gt;" style="shape=module;align=left;spacingLeft=20;align=center;verticalAlign=top;whiteSpace=wrap;html=1;" parent="1" vertex="1">
          <mxGeometry x="-128" y="1851" width="547" height="115" as="geometry" />
        </mxCell>
        <mxCell id="UJDx8VH_fSjyyaCmhiH3-49" value="&lt;span style=&quot;font-size: 20px;&quot;&gt;Possible regimes:&lt;br&gt;1) Fixed time dt&lt;br&gt;2) Particular sensor-based&lt;br&gt;3) Multiple graphs -&amp;gt; merge&lt;br&gt;4) Metrics - based&lt;br&gt;5) Any heuristic - based.&amp;nbsp;&amp;nbsp;&lt;br&gt;&lt;/span&gt;" style="text;html=1;strokeColor=none;fillColor=none;align=center;verticalAlign=middle;whiteSpace=wrap;rounded=0;" parent="1" vertex="1">
          <mxGeometry x="556" y="2068" width="266" height="158" as="geometry" />
        </mxCell>
        <mxCell id="UJDx8VH_fSjyyaCmhiH3-56" style="edgeStyle=orthogonalEdgeStyle;rounded=0;orthogonalLoop=1;jettySize=auto;html=1;" parent="1" source="UJDx8VH_fSjyyaCmhiH3-50" target="UJDx8VH_fSjyyaCmhiH3-55" edge="1">
          <mxGeometry relative="1" as="geometry" />
        </mxCell>
        <mxCell id="UJDx8VH_fSjyyaCmhiH3-50" value="External Module" style="shape=process;whiteSpace=wrap;html=1;backgroundOutline=1;size=0.2105654761904762;" parent="1" vertex="1">
          <mxGeometry x="-668" y="2943.37" width="185" height="60" as="geometry" />
        </mxCell>
        <mxCell id="UJDx8VH_fSjyyaCmhiH3-51" value="Input &lt;br&gt;Data queue" style="text;html=1;strokeColor=none;fillColor=none;align=center;verticalAlign=middle;whiteSpace=wrap;rounded=0;" parent="1" vertex="1">
          <mxGeometry x="-678" y="2954.37" width="60" height="30" as="geometry" />
        </mxCell>
        <mxCell id="UJDx8VH_fSjyyaCmhiH3-52" value="Output&lt;br&gt;&amp;nbsp;queue" style="text;html=1;strokeColor=none;fillColor=none;align=center;verticalAlign=middle;whiteSpace=wrap;rounded=0;" parent="1" vertex="1">
          <mxGeometry x="-534" y="2954.37" width="60" height="30" as="geometry" />
        </mxCell>
        <mxCell id="UJDx8VH_fSjyyaCmhiH3-54" style="edgeStyle=orthogonalEdgeStyle;rounded=0;orthogonalLoop=1;jettySize=auto;html=1;" parent="1" source="UJDx8VH_fSjyyaCmhiH3-53" target="UJDx8VH_fSjyyaCmhiH3-50" edge="1">
          <mxGeometry relative="1" as="geometry" />
        </mxCell>
        <mxCell id="UJDx8VH_fSjyyaCmhiH3-53" value="&lt;font style=&quot;font-size: 16px;&quot;&gt;Element&lt;/font&gt;" style="rounded=1;whiteSpace=wrap;html=1;fillColor=#ffe6cc;strokeColor=#d79b00;" parent="1" vertex="1">
          <mxGeometry x="-778" y="2959.87" width="71" height="27" as="geometry" />
        </mxCell>
        <mxCell id="UJDx8VH_fSjyyaCmhiH3-55" value="&lt;span style=&quot;font-size: 16px;&quot;&gt;Processed&lt;br&gt;Data&lt;br&gt;&lt;/span&gt;" style="rounded=1;whiteSpace=wrap;html=1;fillColor=#dae8fc;strokeColor=#6c8ebf;" parent="1" vertex="1">
          <mxGeometry x="-439.44" y="2952.62" width="129.31" height="41.5" as="geometry" />
        </mxCell>
        <mxCell id="UJDx8VH_fSjyyaCmhiH3-63" value="GraphBuilder(ABC)" style="swimlane;html=1;fontStyle=1;align=center;verticalAlign=top;childLayout=stackLayout;horizontal=1;startSize=26;horizontalStack=0;resizeParent=1;resizeLast=0;collapsible=1;marginBottom=0;swimlaneFillColor=#ffffff;rounded=0;shadow=0;comic=0;labelBackgroundColor=none;strokeWidth=1;fillColor=none;fontFamily=Verdana;fontSize=12" parent="1" vertex="1">
          <mxGeometry x="851" y="2068" width="291" height="150" as="geometry" />
        </mxCell>
        <mxCell id="UJDx8VH_fSjyyaCmhiH3-69" value="+ params: dict" style="text;html=1;strokeColor=none;fillColor=none;align=left;verticalAlign=top;spacingLeft=4;spacingRight=4;whiteSpace=wrap;overflow=hidden;rotatable=0;points=[[0,0.5],[1,0.5]];portConstraint=eastwest;" parent="UJDx8VH_fSjyyaCmhiH3-63" vertex="1">
          <mxGeometry y="26" width="291" height="20" as="geometry" />
        </mxCell>
        <mxCell id="UJDx8VH_fSjyyaCmhiH3-65" value="+ output_graph: Graph with/without edges" style="text;html=1;strokeColor=none;fillColor=none;align=left;verticalAlign=top;spacingLeft=4;spacingRight=4;whiteSpace=wrap;overflow=hidden;rotatable=0;points=[[0,0.5],[1,0.5]];portConstraint=eastwest;" parent="UJDx8VH_fSjyyaCmhiH3-63" vertex="1">
          <mxGeometry y="46" width="291" height="20" as="geometry" />
        </mxCell>
        <mxCell id="UJDx8VH_fSjyyaCmhiH3-66" value="" style="line;html=1;strokeWidth=1;fillColor=none;align=left;verticalAlign=middle;spacingTop=-1;spacingLeft=3;spacingRight=3;rotatable=0;labelPosition=right;points=[];portConstraint=eastwest;" parent="UJDx8VH_fSjyyaCmhiH3-63" vertex="1">
          <mxGeometry y="66" width="291" height="8" as="geometry" />
        </mxCell>
        <mxCell id="UJDx8VH_fSjyyaCmhiH3-67" value="- (@abstractmethod) next_element()" style="text;html=1;strokeColor=none;fillColor=none;align=left;verticalAlign=top;spacingLeft=4;spacingRight=4;whiteSpace=wrap;overflow=hidden;rotatable=0;points=[[0,0.5],[1,0.5]];portConstraint=eastwest;" parent="UJDx8VH_fSjyyaCmhiH3-63" vertex="1">
          <mxGeometry y="74" width="291" height="26" as="geometry" />
        </mxCell>
        <mxCell id="UJDx8VH_fSjyyaCmhiH3-70" value="- (@classmethod) get_graph()" style="text;html=1;strokeColor=none;fillColor=none;align=left;verticalAlign=top;spacingLeft=4;spacingRight=4;whiteSpace=wrap;overflow=hidden;rotatable=0;points=[[0,0.5],[1,0.5]];portConstraint=eastwest;" parent="UJDx8VH_fSjyyaCmhiH3-63" vertex="1">
          <mxGeometry y="100" width="291" height="26" as="geometry" />
        </mxCell>
        <mxCell id="cmbBCZXr3KO4VdV7eKeR-1" style="edgeStyle=orthogonalEdgeStyle;rounded=0;orthogonalLoop=1;jettySize=auto;html=1;entryX=0.5;entryY=0;entryDx=0;entryDy=0;" parent="1" source="cmbBCZXr3KO4VdV7eKeR-2" target="cmbBCZXr3KO4VdV7eKeR-12" edge="1">
          <mxGeometry relative="1" as="geometry">
            <Array as="points">
              <mxPoint x="-119" y="4722" />
              <mxPoint x="-119" y="4647" />
              <mxPoint x="154" y="4647" />
            </Array>
          </mxGeometry>
        </mxCell>
        <mxCell id="cmbBCZXr3KO4VdV7eKeR-2" value="" style="rounded=0;whiteSpace=wrap;html=1;fillColor=#ffe6cc;strokeColor=#d79b00;" parent="1" vertex="1">
          <mxGeometry x="-234" y="4667" width="89" height="110" as="geometry" />
        </mxCell>
        <mxCell id="cmbBCZXr3KO4VdV7eKeR-3" value="" style="endArrow=none;html=1;rounded=0;entryX=0.99;entryY=0.188;entryDx=0;entryDy=0;entryPerimeter=0;exitX=0.005;exitY=0.191;exitDx=0;exitDy=0;exitPerimeter=0;" parent="1" source="cmbBCZXr3KO4VdV7eKeR-2" target="cmbBCZXr3KO4VdV7eKeR-2" edge="1">
          <mxGeometry width="50" height="50" relative="1" as="geometry">
            <mxPoint x="-364" y="4777" as="sourcePoint" />
            <mxPoint x="-154" y="4707" as="targetPoint" />
          </mxGeometry>
        </mxCell>
        <mxCell id="cmbBCZXr3KO4VdV7eKeR-4" value="" style="endArrow=none;html=1;rounded=0;entryX=1;entryY=0.5;entryDx=0;entryDy=0;exitX=0;exitY=0.5;exitDx=0;exitDy=0;" parent="1" source="cmbBCZXr3KO4VdV7eKeR-2" target="cmbBCZXr3KO4VdV7eKeR-2" edge="1">
          <mxGeometry width="50" height="50" relative="1" as="geometry">
            <mxPoint x="-234" y="4858" as="sourcePoint" />
            <mxPoint x="-165" y="4857" as="targetPoint" />
          </mxGeometry>
        </mxCell>
        <mxCell id="cmbBCZXr3KO4VdV7eKeR-5" value="Batch" style="text;html=1;strokeColor=none;fillColor=none;align=center;verticalAlign=middle;whiteSpace=wrap;rounded=0;" parent="1" vertex="1">
          <mxGeometry x="-212" y="4645" width="45" height="19.5" as="geometry" />
        </mxCell>
        <mxCell id="cmbBCZXr3KO4VdV7eKeR-6" value="&lt;span style=&quot;font-size: 10px;&quot;&gt;Measurement 1&lt;/span&gt;" style="text;html=1;strokeColor=none;fillColor=none;align=center;verticalAlign=middle;whiteSpace=wrap;rounded=0;" parent="1" vertex="1">
          <mxGeometry x="-226.5" y="4672" width="76.5" height="10" as="geometry" />
        </mxCell>
        <mxCell id="cmbBCZXr3KO4VdV7eKeR-7" value="" style="endArrow=none;html=1;rounded=0;entryX=1;entryY=0.75;entryDx=0;entryDy=0;exitX=0;exitY=0.75;exitDx=0;exitDy=0;" parent="1" source="cmbBCZXr3KO4VdV7eKeR-2" target="cmbBCZXr3KO4VdV7eKeR-2" edge="1">
          <mxGeometry width="50" height="50" relative="1" as="geometry">
            <mxPoint x="-224" y="4732" as="sourcePoint" />
            <mxPoint x="-154" y="4732" as="targetPoint" />
          </mxGeometry>
        </mxCell>
        <mxCell id="cmbBCZXr3KO4VdV7eKeR-8" value="&lt;span style=&quot;font-size: 10px;&quot;&gt;Measurement 2&lt;/span&gt;" style="text;html=1;strokeColor=none;fillColor=none;align=center;verticalAlign=middle;whiteSpace=wrap;rounded=0;" parent="1" vertex="1">
          <mxGeometry x="-226.5" y="4699" width="76.5" height="10" as="geometry" />
        </mxCell>
        <mxCell id="cmbBCZXr3KO4VdV7eKeR-9" value="&lt;span style=&quot;font-size: 10px;&quot;&gt;Measurement 3&lt;/span&gt;" style="text;html=1;strokeColor=none;fillColor=none;align=center;verticalAlign=middle;whiteSpace=wrap;rounded=0;" parent="1" vertex="1">
          <mxGeometry x="-226.5" y="4729" width="76.5" height="10" as="geometry" />
        </mxCell>
        <mxCell id="cmbBCZXr3KO4VdV7eKeR-10" value="&lt;span style=&quot;font-size: 10px;&quot;&gt;Measurement N&lt;/span&gt;" style="text;html=1;strokeColor=none;fillColor=none;align=center;verticalAlign=middle;whiteSpace=wrap;rounded=0;" parent="1" vertex="1">
          <mxGeometry x="-226.5" y="4757" width="76.5" height="10" as="geometry" />
        </mxCell>
        <mxCell id="cmbBCZXr3KO4VdV7eKeR-11" value="Imu data integration" style="rounded=1;whiteSpace=wrap;html=1;" parent="1" vertex="1">
          <mxGeometry x="-84" y="4705" width="124" height="34" as="geometry" />
        </mxCell>
        <mxCell id="cmbBCZXr3KO4VdV7eKeR-12" value="Anomaly Detector Model" style="rounded=1;whiteSpace=wrap;html=1;" parent="1" vertex="1">
          <mxGeometry x="92" y="4705" width="124" height="34" as="geometry" />
        </mxCell>
        <mxCell id="cmbBCZXr3KO4VdV7eKeR-13" value="" style="endArrow=classic;html=1;rounded=0;exitX=1;exitY=0.5;exitDx=0;exitDy=0;entryX=0;entryY=0.5;entryDx=0;entryDy=0;" parent="1" source="cmbBCZXr3KO4VdV7eKeR-2" target="cmbBCZXr3KO4VdV7eKeR-11" edge="1">
          <mxGeometry width="50" height="50" relative="1" as="geometry">
            <mxPoint x="-21" y="4730" as="sourcePoint" />
            <mxPoint x="29" y="4680" as="targetPoint" />
          </mxGeometry>
        </mxCell>
        <mxCell id="cmbBCZXr3KO4VdV7eKeR-14" value="" style="endArrow=classic;html=1;rounded=0;exitX=1;exitY=0.5;exitDx=0;exitDy=0;entryX=0;entryY=0.5;entryDx=0;entryDy=0;" parent="1" source="cmbBCZXr3KO4VdV7eKeR-11" target="cmbBCZXr3KO4VdV7eKeR-12" edge="1">
          <mxGeometry width="50" height="50" relative="1" as="geometry">
            <mxPoint x="80" y="4757" as="sourcePoint" />
            <mxPoint x="141" y="4757" as="targetPoint" />
          </mxGeometry>
        </mxCell>
        <mxCell id="cmbBCZXr3KO4VdV7eKeR-15" value="dR, dT = f(X)" style="text;html=1;strokeColor=none;fillColor=none;align=center;verticalAlign=middle;whiteSpace=wrap;rounded=0;" parent="1" vertex="1">
          <mxGeometry x="13" y="4739" width="79" height="21" as="geometry" />
        </mxCell>
        <mxCell id="cmbBCZXr3KO4VdV7eKeR-16" value="(a1, w1), (a2, w2), (a3, w3) ... = X" style="text;html=1;strokeColor=none;fillColor=none;align=center;verticalAlign=middle;whiteSpace=wrap;rounded=0;" parent="1" vertex="1">
          <mxGeometry x="-103" y="4624" width="211.5" height="21" as="geometry" />
        </mxCell>
        <mxCell id="cmbBCZXr3KO4VdV7eKeR-17" value="a - acceleration&lt;br&gt;w - angular velocity" style="text;html=1;strokeColor=none;fillColor=none;align=center;verticalAlign=middle;whiteSpace=wrap;rounded=0;" parent="1" vertex="1">
          <mxGeometry x="-103" y="4654" width="211.5" height="21" as="geometry" />
        </mxCell>
        <mxCell id="cmbBCZXr3KO4VdV7eKeR-18" value="labeled f(X)" style="text;html=1;strokeColor=none;fillColor=none;align=center;verticalAlign=middle;whiteSpace=wrap;rounded=0;" parent="1" vertex="1">
          <mxGeometry x="250" y="4709" width="79" height="21" as="geometry" />
        </mxCell>
        <mxCell id="cmbBCZXr3KO4VdV7eKeR-19" value="" style="endArrow=classic;html=1;rounded=0;exitX=1;exitY=0.5;exitDx=0;exitDy=0;" parent="1" source="cmbBCZXr3KO4VdV7eKeR-12" edge="1">
          <mxGeometry width="50" height="50" relative="1" as="geometry">
            <mxPoint x="220" y="4721.77" as="sourcePoint" />
            <mxPoint x="254" y="4722" as="targetPoint" />
          </mxGeometry>
        </mxCell>
        <mxCell id="cmbBCZXr3KO4VdV7eKeR-20" style="edgeStyle=orthogonalEdgeStyle;rounded=0;orthogonalLoop=1;jettySize=auto;html=1;entryX=0.5;entryY=1;entryDx=0;entryDy=0;exitX=0;exitY=0.5;exitDx=0;exitDy=0;" parent="1" source="cmbBCZXr3KO4VdV7eKeR-21" target="cmbBCZXr3KO4VdV7eKeR-12" edge="1">
          <mxGeometry relative="1" as="geometry" />
        </mxCell>
        <mxCell id="cmbBCZXr3KO4VdV7eKeR-21" value="Sequence of latest states" style="rounded=1;whiteSpace=wrap;html=1;" parent="1" vertex="1">
          <mxGeometry x="181" y="4777" width="95" height="34" as="geometry" />
        </mxCell>
        <mxCell id="cmbBCZXr3KO4VdV7eKeR-22" style="edgeStyle=orthogonalEdgeStyle;rounded=0;orthogonalLoop=1;jettySize=auto;html=1;entryX=0.5;entryY=1;entryDx=0;entryDy=0;exitX=0;exitY=0.5;exitDx=0;exitDy=0;" parent="1" source="cmbBCZXr3KO4VdV7eKeR-23" target="cmbBCZXr3KO4VdV7eKeR-12" edge="1">
          <mxGeometry relative="1" as="geometry" />
        </mxCell>
        <mxCell id="cmbBCZXr3KO4VdV7eKeR-23" value="quantification of the sollution:&lt;br&gt;Chi-square test" style="rounded=1;whiteSpace=wrap;html=1;" parent="1" vertex="1">
          <mxGeometry x="181" y="4828" width="167" height="34" as="geometry" />
        </mxCell>
        <mxCell id="cmbBCZXr3KO4VdV7eKeR-24" style="edgeStyle=orthogonalEdgeStyle;rounded=0;orthogonalLoop=1;jettySize=auto;html=1;entryX=0.5;entryY=0;entryDx=0;entryDy=0;" parent="1" source="cmbBCZXr3KO4VdV7eKeR-25" target="cmbBCZXr3KO4VdV7eKeR-35" edge="1">
          <mxGeometry relative="1" as="geometry">
            <Array as="points">
              <mxPoint x="-119" y="4994" />
              <mxPoint x="-119" y="4919" />
              <mxPoint x="154" y="4919" />
            </Array>
          </mxGeometry>
        </mxCell>
        <mxCell id="cmbBCZXr3KO4VdV7eKeR-25" value="" style="rounded=0;whiteSpace=wrap;html=1;fillColor=#ffe6cc;strokeColor=#d79b00;" parent="1" vertex="1">
          <mxGeometry x="-234" y="4939" width="89" height="110" as="geometry" />
        </mxCell>
        <mxCell id="cmbBCZXr3KO4VdV7eKeR-26" value="" style="endArrow=none;html=1;rounded=0;entryX=0.99;entryY=0.188;entryDx=0;entryDy=0;entryPerimeter=0;exitX=0.005;exitY=0.191;exitDx=0;exitDy=0;exitPerimeter=0;" parent="1" source="cmbBCZXr3KO4VdV7eKeR-25" target="cmbBCZXr3KO4VdV7eKeR-25" edge="1">
          <mxGeometry width="50" height="50" relative="1" as="geometry">
            <mxPoint x="-364" y="5049" as="sourcePoint" />
            <mxPoint x="-154" y="4979" as="targetPoint" />
          </mxGeometry>
        </mxCell>
        <mxCell id="cmbBCZXr3KO4VdV7eKeR-27" value="" style="endArrow=none;html=1;rounded=0;entryX=1;entryY=0.5;entryDx=0;entryDy=0;exitX=0;exitY=0.5;exitDx=0;exitDy=0;" parent="1" source="cmbBCZXr3KO4VdV7eKeR-25" target="cmbBCZXr3KO4VdV7eKeR-25" edge="1">
          <mxGeometry width="50" height="50" relative="1" as="geometry">
            <mxPoint x="-234" y="5130" as="sourcePoint" />
            <mxPoint x="-165" y="5129" as="targetPoint" />
          </mxGeometry>
        </mxCell>
        <mxCell id="cmbBCZXr3KO4VdV7eKeR-28" value="Batch" style="text;html=1;strokeColor=none;fillColor=none;align=center;verticalAlign=middle;whiteSpace=wrap;rounded=0;" parent="1" vertex="1">
          <mxGeometry x="-212" y="4917" width="45" height="19.5" as="geometry" />
        </mxCell>
        <mxCell id="cmbBCZXr3KO4VdV7eKeR-29" value="&lt;span style=&quot;font-size: 10px;&quot;&gt;Measurement 1&lt;/span&gt;" style="text;html=1;strokeColor=none;fillColor=none;align=center;verticalAlign=middle;whiteSpace=wrap;rounded=0;" parent="1" vertex="1">
          <mxGeometry x="-226.5" y="4944" width="76.5" height="10" as="geometry" />
        </mxCell>
        <mxCell id="cmbBCZXr3KO4VdV7eKeR-30" value="" style="endArrow=none;html=1;rounded=0;entryX=1;entryY=0.75;entryDx=0;entryDy=0;exitX=0;exitY=0.75;exitDx=0;exitDy=0;" parent="1" source="cmbBCZXr3KO4VdV7eKeR-25" target="cmbBCZXr3KO4VdV7eKeR-25" edge="1">
          <mxGeometry width="50" height="50" relative="1" as="geometry">
            <mxPoint x="-224" y="5004" as="sourcePoint" />
            <mxPoint x="-154" y="5004" as="targetPoint" />
          </mxGeometry>
        </mxCell>
        <mxCell id="cmbBCZXr3KO4VdV7eKeR-31" value="&lt;span style=&quot;font-size: 10px;&quot;&gt;Measurement 2&lt;/span&gt;" style="text;html=1;strokeColor=none;fillColor=none;align=center;verticalAlign=middle;whiteSpace=wrap;rounded=0;" parent="1" vertex="1">
          <mxGeometry x="-226.5" y="4971" width="76.5" height="10" as="geometry" />
        </mxCell>
        <mxCell id="cmbBCZXr3KO4VdV7eKeR-32" value="&lt;span style=&quot;font-size: 10px;&quot;&gt;Measurement 3&lt;/span&gt;" style="text;html=1;strokeColor=none;fillColor=none;align=center;verticalAlign=middle;whiteSpace=wrap;rounded=0;" parent="1" vertex="1">
          <mxGeometry x="-226.5" y="5001" width="76.5" height="10" as="geometry" />
        </mxCell>
        <mxCell id="cmbBCZXr3KO4VdV7eKeR-33" value="&lt;span style=&quot;font-size: 10px;&quot;&gt;Measurement N&lt;/span&gt;" style="text;html=1;strokeColor=none;fillColor=none;align=center;verticalAlign=middle;whiteSpace=wrap;rounded=0;" parent="1" vertex="1">
          <mxGeometry x="-226.5" y="5029" width="76.5" height="10" as="geometry" />
        </mxCell>
        <mxCell id="cmbBCZXr3KO4VdV7eKeR-34" value="Visual odometry" style="rounded=1;whiteSpace=wrap;html=1;" parent="1" vertex="1">
          <mxGeometry x="-84" y="4977" width="124" height="34" as="geometry" />
        </mxCell>
        <mxCell id="cmbBCZXr3KO4VdV7eKeR-35" value="Anomaly Detector Model" style="rounded=1;whiteSpace=wrap;html=1;" parent="1" vertex="1">
          <mxGeometry x="92" y="4977" width="124" height="34" as="geometry" />
        </mxCell>
        <mxCell id="cmbBCZXr3KO4VdV7eKeR-36" value="" style="endArrow=classic;html=1;rounded=0;exitX=1;exitY=0.5;exitDx=0;exitDy=0;entryX=0;entryY=0.5;entryDx=0;entryDy=0;" parent="1" source="cmbBCZXr3KO4VdV7eKeR-25" target="cmbBCZXr3KO4VdV7eKeR-34" edge="1">
          <mxGeometry width="50" height="50" relative="1" as="geometry">
            <mxPoint x="-21" y="5002" as="sourcePoint" />
            <mxPoint x="29" y="4952" as="targetPoint" />
          </mxGeometry>
        </mxCell>
        <mxCell id="cmbBCZXr3KO4VdV7eKeR-37" value="" style="endArrow=classic;html=1;rounded=0;exitX=1;exitY=0.5;exitDx=0;exitDy=0;entryX=0;entryY=0.5;entryDx=0;entryDy=0;" parent="1" source="cmbBCZXr3KO4VdV7eKeR-34" target="cmbBCZXr3KO4VdV7eKeR-35" edge="1">
          <mxGeometry width="50" height="50" relative="1" as="geometry">
            <mxPoint x="80" y="5029" as="sourcePoint" />
            <mxPoint x="141" y="5029" as="targetPoint" />
          </mxGeometry>
        </mxCell>
        <mxCell id="cmbBCZXr3KO4VdV7eKeR-38" value="dR, dT = f(X)" style="text;html=1;strokeColor=none;fillColor=none;align=center;verticalAlign=middle;whiteSpace=wrap;rounded=0;" parent="1" vertex="1">
          <mxGeometry x="13" y="5011" width="79" height="21" as="geometry" />
        </mxCell>
        <mxCell id="cmbBCZXr3KO4VdV7eKeR-39" value="(Img1, Img2) = X" style="text;html=1;strokeColor=none;fillColor=none;align=center;verticalAlign=middle;whiteSpace=wrap;rounded=0;" parent="1" vertex="1">
          <mxGeometry x="-103" y="4896" width="211.5" height="21" as="geometry" />
        </mxCell>
        <mxCell id="cmbBCZXr3KO4VdV7eKeR-40" value="img1 - previous image&lt;br&gt;img2 - current image" style="text;html=1;strokeColor=none;fillColor=none;align=center;verticalAlign=middle;whiteSpace=wrap;rounded=0;" parent="1" vertex="1">
          <mxGeometry x="-111" y="4923" width="215" height="31" as="geometry" />
        </mxCell>
        <mxCell id="cmbBCZXr3KO4VdV7eKeR-41" value="labeled f(X)" style="text;html=1;strokeColor=none;fillColor=none;align=center;verticalAlign=middle;whiteSpace=wrap;rounded=0;" parent="1" vertex="1">
          <mxGeometry x="250" y="4981" width="79" height="21" as="geometry" />
        </mxCell>
        <mxCell id="cmbBCZXr3KO4VdV7eKeR-42" value="" style="endArrow=classic;html=1;rounded=0;exitX=1;exitY=0.5;exitDx=0;exitDy=0;" parent="1" source="cmbBCZXr3KO4VdV7eKeR-35" edge="1">
          <mxGeometry width="50" height="50" relative="1" as="geometry">
            <mxPoint x="220" y="4993.77" as="sourcePoint" />
            <mxPoint x="254" y="4994" as="targetPoint" />
          </mxGeometry>
        </mxCell>
        <mxCell id="cmbBCZXr3KO4VdV7eKeR-43" style="edgeStyle=orthogonalEdgeStyle;rounded=0;orthogonalLoop=1;jettySize=auto;html=1;entryX=0.5;entryY=1;entryDx=0;entryDy=0;exitX=0;exitY=0.5;exitDx=0;exitDy=0;" parent="1" source="cmbBCZXr3KO4VdV7eKeR-44" target="cmbBCZXr3KO4VdV7eKeR-35" edge="1">
          <mxGeometry relative="1" as="geometry" />
        </mxCell>
        <mxCell id="cmbBCZXr3KO4VdV7eKeR-44" value="Sequence of latest states" style="rounded=1;whiteSpace=wrap;html=1;" parent="1" vertex="1">
          <mxGeometry x="181" y="5049" width="95" height="34" as="geometry" />
        </mxCell>
        <mxCell id="cmbBCZXr3KO4VdV7eKeR-45" style="edgeStyle=orthogonalEdgeStyle;rounded=0;orthogonalLoop=1;jettySize=auto;html=1;entryX=0.5;entryY=1;entryDx=0;entryDy=0;exitX=0;exitY=0.5;exitDx=0;exitDy=0;" parent="1" source="cmbBCZXr3KO4VdV7eKeR-46" target="cmbBCZXr3KO4VdV7eKeR-35" edge="1">
          <mxGeometry relative="1" as="geometry" />
        </mxCell>
        <mxCell id="cmbBCZXr3KO4VdV7eKeR-46" value="quantification of the sollution:&lt;br&gt;Chi-square test" style="rounded=1;whiteSpace=wrap;html=1;" parent="1" vertex="1">
          <mxGeometry x="181" y="5100" width="167" height="34" as="geometry" />
        </mxCell>
        <mxCell id="cmbBCZXr3KO4VdV7eKeR-54" style="edgeStyle=orthogonalEdgeStyle;rounded=0;orthogonalLoop=1;jettySize=auto;html=1;" parent="1" source="cmbBCZXr3KO4VdV7eKeR-49" target="cmbBCZXr3KO4VdV7eKeR-51" edge="1">
          <mxGeometry relative="1" as="geometry" />
        </mxCell>
        <mxCell id="cmbBCZXr3KO4VdV7eKeR-49" value="&lt;span style=&quot;font-size: 20px;&quot;&gt;Element&lt;/span&gt;" style="rounded=1;whiteSpace=wrap;html=1;" parent="1" vertex="1">
          <mxGeometry x="-719" y="2263" width="120" height="60" as="geometry" />
        </mxCell>
        <mxCell id="cmbBCZXr3KO4VdV7eKeR-50" value="&lt;span style=&quot;font-size: 20px;&quot;&gt;Output queue&lt;/span&gt;" style="rounded=1;whiteSpace=wrap;html=1;" parent="1" vertex="1">
          <mxGeometry x="-20" y="2263" width="120" height="60" as="geometry" />
        </mxCell>
        <mxCell id="cmbBCZXr3KO4VdV7eKeR-55" style="edgeStyle=orthogonalEdgeStyle;rounded=0;orthogonalLoop=1;jettySize=auto;html=1;" parent="1" source="cmbBCZXr3KO4VdV7eKeR-51" target="cmbBCZXr3KO4VdV7eKeR-52" edge="1">
          <mxGeometry relative="1" as="geometry" />
        </mxCell>
        <mxCell id="cmbBCZXr3KO4VdV7eKeR-51" value="&lt;span style=&quot;font-size: 20px;&quot;&gt;data converter&lt;/span&gt;" style="rounded=1;whiteSpace=wrap;html=1;" parent="1" vertex="1">
          <mxGeometry x="-545" y="2263" width="120" height="60" as="geometry" />
        </mxCell>
        <mxCell id="cmbBCZXr3KO4VdV7eKeR-169" style="edgeStyle=orthogonalEdgeStyle;rounded=0;orthogonalLoop=1;jettySize=auto;html=1;" parent="1" source="cmbBCZXr3KO4VdV7eKeR-52" target="cmbBCZXr3KO4VdV7eKeR-53" edge="1">
          <mxGeometry relative="1" as="geometry" />
        </mxCell>
        <mxCell id="cmbBCZXr3KO4VdV7eKeR-52" value="&lt;font style=&quot;font-size: 20px;&quot;&gt;external module&lt;/font&gt;" style="rounded=1;whiteSpace=wrap;html=1;" parent="1" vertex="1">
          <mxGeometry x="-369" y="2263" width="120" height="60" as="geometry" />
        </mxCell>
        <mxCell id="cmbBCZXr3KO4VdV7eKeR-170" style="edgeStyle=orthogonalEdgeStyle;rounded=0;orthogonalLoop=1;jettySize=auto;html=1;" parent="1" source="cmbBCZXr3KO4VdV7eKeR-53" target="cmbBCZXr3KO4VdV7eKeR-50" edge="1">
          <mxGeometry relative="1" as="geometry" />
        </mxCell>
        <mxCell id="cmbBCZXr3KO4VdV7eKeR-172" style="edgeStyle=orthogonalEdgeStyle;rounded=0;orthogonalLoop=1;jettySize=auto;html=1;" parent="1" source="cmbBCZXr3KO4VdV7eKeR-53" target="cmbBCZXr3KO4VdV7eKeR-171" edge="1">
          <mxGeometry relative="1" as="geometry">
            <Array as="points">
              <mxPoint x="-135" y="2212" />
            </Array>
          </mxGeometry>
        </mxCell>
        <mxCell id="cmbBCZXr3KO4VdV7eKeR-53" value="&lt;span style=&quot;font-size: 20px;&quot;&gt;data converter&lt;/span&gt;" style="rounded=1;whiteSpace=wrap;html=1;" parent="1" vertex="1">
          <mxGeometry x="-194.75" y="2263" width="120" height="60" as="geometry" />
        </mxCell>
        <mxCell id="cmbBCZXr3KO4VdV7eKeR-58" value="&lt;font style=&quot;font-size: 18px;&quot;&gt;External module might contain output queues of elements, not just one element&lt;/font&gt;" style="text;html=1;strokeColor=none;fillColor=none;align=center;verticalAlign=middle;whiteSpace=wrap;rounded=0;" parent="1" vertex="1">
          <mxGeometry x="-727" y="2349" width="867" height="48" as="geometry" />
        </mxCell>
        <mxCell id="cmbBCZXr3KO4VdV7eKeR-59" style="edgeStyle=orthogonalEdgeStyle;rounded=0;orthogonalLoop=1;jettySize=auto;html=1;entryX=0;entryY=0.5;entryDx=0;entryDy=0;" parent="1" source="cmbBCZXr3KO4VdV7eKeR-60" target="cmbBCZXr3KO4VdV7eKeR-62" edge="1">
          <mxGeometry relative="1" as="geometry" />
        </mxCell>
        <mxCell id="cmbBCZXr3KO4VdV7eKeR-60" value="" style="rounded=0;whiteSpace=wrap;html=1;fillColor=#ffe6cc;strokeColor=#d79b00;" parent="1" vertex="1">
          <mxGeometry x="1069" y="1238" width="70" height="140" as="geometry" />
        </mxCell>
        <mxCell id="cmbBCZXr3KO4VdV7eKeR-61" style="edgeStyle=orthogonalEdgeStyle;rounded=0;orthogonalLoop=1;jettySize=auto;html=1;" parent="1" source="cmbBCZXr3KO4VdV7eKeR-62" target="cmbBCZXr3KO4VdV7eKeR-72" edge="1">
          <mxGeometry relative="1" as="geometry" />
        </mxCell>
        <mxCell id="cmbBCZXr3KO4VdV7eKeR-173" style="edgeStyle=orthogonalEdgeStyle;rounded=0;orthogonalLoop=1;jettySize=auto;html=1;" parent="1" source="cmbBCZXr3KO4VdV7eKeR-62" target="cmbBCZXr3KO4VdV7eKeR-106" edge="1">
          <mxGeometry relative="1" as="geometry">
            <Array as="points">
              <mxPoint x="1348" y="1307" />
              <mxPoint x="1348" y="1225" />
            </Array>
          </mxGeometry>
        </mxCell>
        <mxCell id="cmbBCZXr3KO4VdV7eKeR-62" value="&lt;div&gt;Elements Distributor&lt;/div&gt;" style="rounded=0;whiteSpace=wrap;html=1;fillColor=#dae8fc;strokeColor=#6c8ebf;" parent="1" vertex="1">
          <mxGeometry x="1223" y="1273" width="100" height="70" as="geometry" />
        </mxCell>
        <mxCell id="cmbBCZXr3KO4VdV7eKeR-63" value="" style="endArrow=none;html=1;rounded=0;entryX=1;entryY=0.25;entryDx=0;entryDy=0;exitX=0;exitY=0.25;exitDx=0;exitDy=0;" parent="1" source="cmbBCZXr3KO4VdV7eKeR-60" target="cmbBCZXr3KO4VdV7eKeR-60" edge="1">
          <mxGeometry width="50" height="50" relative="1" as="geometry">
            <mxPoint x="1049" y="1308.5" as="sourcePoint" />
            <mxPoint x="1118" y="1307.5" as="targetPoint" />
          </mxGeometry>
        </mxCell>
        <mxCell id="cmbBCZXr3KO4VdV7eKeR-64" value="" style="endArrow=none;html=1;rounded=0;entryX=1;entryY=0.5;entryDx=0;entryDy=0;exitX=0;exitY=0.5;exitDx=0;exitDy=0;" parent="1" source="cmbBCZXr3KO4VdV7eKeR-60" target="cmbBCZXr3KO4VdV7eKeR-60" edge="1">
          <mxGeometry width="50" height="50" relative="1" as="geometry">
            <mxPoint x="1052" y="1283" as="sourcePoint" />
            <mxPoint x="1122" y="1283" as="targetPoint" />
          </mxGeometry>
        </mxCell>
        <mxCell id="cmbBCZXr3KO4VdV7eKeR-65" value="" style="endArrow=none;html=1;rounded=0;entryX=1;entryY=0.75;entryDx=0;entryDy=0;exitX=0;exitY=0.75;exitDx=0;exitDy=0;" parent="1" source="cmbBCZXr3KO4VdV7eKeR-60" target="cmbBCZXr3KO4VdV7eKeR-60" edge="1">
          <mxGeometry width="50" height="50" relative="1" as="geometry">
            <mxPoint x="1062" y="1293" as="sourcePoint" />
            <mxPoint x="1132" y="1293" as="targetPoint" />
          </mxGeometry>
        </mxCell>
        <mxCell id="cmbBCZXr3KO4VdV7eKeR-66" value="&lt;font style=&quot;font-size: 10px;&quot;&gt;Element 1&lt;/font&gt;" style="text;html=1;strokeColor=none;fillColor=none;align=center;verticalAlign=middle;whiteSpace=wrap;rounded=0;" parent="1" vertex="1">
          <mxGeometry x="1079.25" y="1250" width="49.5" height="10" as="geometry" />
        </mxCell>
        <mxCell id="cmbBCZXr3KO4VdV7eKeR-67" value="Data Batch" style="text;html=1;strokeColor=none;fillColor=none;align=center;verticalAlign=middle;whiteSpace=wrap;rounded=0;" parent="1" vertex="1">
          <mxGeometry x="1129.38" y="1217" width="65.25" height="15" as="geometry" />
        </mxCell>
        <mxCell id="cmbBCZXr3KO4VdV7eKeR-68" value="&lt;font style=&quot;font-size: 10px;&quot;&gt;Element 2&lt;/font&gt;" style="text;html=1;strokeColor=none;fillColor=none;align=center;verticalAlign=middle;whiteSpace=wrap;rounded=0;" parent="1" vertex="1">
          <mxGeometry x="1079.25" y="1285" width="49.5" height="10" as="geometry" />
        </mxCell>
        <mxCell id="cmbBCZXr3KO4VdV7eKeR-69" value="&lt;font style=&quot;font-size: 10px;&quot;&gt;Element 3&lt;/font&gt;" style="text;html=1;strokeColor=none;fillColor=none;align=center;verticalAlign=middle;whiteSpace=wrap;rounded=0;" parent="1" vertex="1">
          <mxGeometry x="1079.25" y="1318" width="49.5" height="10" as="geometry" />
        </mxCell>
        <mxCell id="cmbBCZXr3KO4VdV7eKeR-70" value="&lt;font style=&quot;font-size: 10px;&quot;&gt;Element k&lt;/font&gt;" style="text;html=1;strokeColor=none;fillColor=none;align=center;verticalAlign=middle;whiteSpace=wrap;rounded=0;" parent="1" vertex="1">
          <mxGeometry x="1079.25" y="1354" width="49.5" height="10" as="geometry" />
        </mxCell>
        <mxCell id="cmbBCZXr3KO4VdV7eKeR-71" style="edgeStyle=orthogonalEdgeStyle;rounded=0;orthogonalLoop=1;jettySize=auto;html=1;" parent="1" source="cmbBCZXr3KO4VdV7eKeR-72" target="cmbBCZXr3KO4VdV7eKeR-76" edge="1">
          <mxGeometry relative="1" as="geometry" />
        </mxCell>
        <mxCell id="cmbBCZXr3KO4VdV7eKeR-72" value="Nodes Creator" style="rounded=0;whiteSpace=wrap;html=1;fillColor=#dae8fc;strokeColor=#6c8ebf;" parent="1" vertex="1">
          <mxGeometry x="1573" y="1273" width="89" height="70" as="geometry" />
        </mxCell>
        <mxCell id="cmbBCZXr3KO4VdV7eKeR-73" value="Element" style="text;html=1;strokeColor=none;fillColor=none;align=center;verticalAlign=middle;whiteSpace=wrap;rounded=0;" parent="1" vertex="1">
          <mxGeometry x="1152" y="1277" width="60" height="30" as="geometry" />
        </mxCell>
        <mxCell id="cmbBCZXr3KO4VdV7eKeR-74" value="Z&lt;br&gt;(processed&lt;br&gt;measurements)" style="text;html=1;strokeColor=none;fillColor=none;align=center;verticalAlign=middle;whiteSpace=wrap;rounded=0;" parent="1" vertex="1">
          <mxGeometry x="1380.12" y="1315" width="77.25" height="39" as="geometry" />
        </mxCell>
        <mxCell id="cmbBCZXr3KO4VdV7eKeR-75" style="edgeStyle=orthogonalEdgeStyle;rounded=0;orthogonalLoop=1;jettySize=auto;html=1;" parent="1" source="cmbBCZXr3KO4VdV7eKeR-76" target="cmbBCZXr3KO4VdV7eKeR-84" edge="1">
          <mxGeometry relative="1" as="geometry">
            <mxPoint x="1847.75" y="1308" as="targetPoint" />
            <mxPoint x="1921" y="1308" as="sourcePoint" />
          </mxGeometry>
        </mxCell>
        <mxCell id="cmbBCZXr3KO4VdV7eKeR-176" style="edgeStyle=orthogonalEdgeStyle;rounded=0;orthogonalLoop=1;jettySize=auto;html=1;" parent="1" target="cmbBCZXr3KO4VdV7eKeR-175" edge="1">
          <mxGeometry relative="1" as="geometry">
            <Array as="points">
              <mxPoint x="1946" y="1308" />
              <mxPoint x="1946" y="1226" />
            </Array>
            <mxPoint x="1921" y="1308" as="sourcePoint" />
          </mxGeometry>
        </mxCell>
        <mxCell id="cmbBCZXr3KO4VdV7eKeR-76" value="Factors Creator" style="rounded=0;whiteSpace=wrap;html=1;fillColor=#dae8fc;strokeColor=#6c8ebf;" parent="1" vertex="1">
          <mxGeometry x="1718.5" y="1273" width="89" height="70" as="geometry" />
        </mxCell>
        <mxCell id="uGEq2eV-W03FdyliBu1q-3" style="edgeStyle=orthogonalEdgeStyle;rounded=0;orthogonalLoop=1;jettySize=auto;html=1;" parent="1" source="cmbBCZXr3KO4VdV7eKeR-79" target="uGEq2eV-W03FdyliBu1q-2" edge="1">
          <mxGeometry relative="1" as="geometry" />
        </mxCell>
        <mxCell id="cmbBCZXr3KO4VdV7eKeR-79" value="Solved&lt;br style=&quot;border-color: var(--border-color);&quot;&gt;Factor Graph G" style="text;html=1;strokeColor=none;fillColor=none;align=center;verticalAlign=middle;whiteSpace=wrap;rounded=0;" parent="1" vertex="1">
          <mxGeometry x="1733" y="1109" width="60" height="30" as="geometry" />
        </mxCell>
        <mxCell id="cmbBCZXr3KO4VdV7eKeR-82" value="Unsolved&lt;br&gt;Factor Graph G" style="text;html=1;strokeColor=none;fillColor=none;align=center;verticalAlign=middle;whiteSpace=wrap;rounded=0;" parent="1" vertex="1">
          <mxGeometry x="1840" y="1263" width="60" height="30" as="geometry" />
        </mxCell>
        <mxCell id="cmbBCZXr3KO4VdV7eKeR-105" style="edgeStyle=orthogonalEdgeStyle;rounded=0;orthogonalLoop=1;jettySize=auto;html=1;" parent="1" source="cmbBCZXr3KO4VdV7eKeR-84" target="cmbBCZXr3KO4VdV7eKeR-104" edge="1">
          <mxGeometry relative="1" as="geometry" />
        </mxCell>
        <mxCell id="cmbBCZXr3KO4VdV7eKeR-84" value="Solver" style="rounded=0;whiteSpace=wrap;html=1;fillColor=#d5e8d4;strokeColor=#82b366;" parent="1" vertex="1">
          <mxGeometry x="2127" y="1273" width="89" height="70" as="geometry" />
        </mxCell>
        <mxCell id="cmbBCZXr3KO4VdV7eKeR-88" value="(OPTIONAL)&lt;br&gt;Loop Closing&lt;br&gt;Graph Builder" style="rounded=0;whiteSpace=wrap;html=1;fillColor=#b0e3e6;strokeColor=#0e8088;" parent="1" vertex="1">
          <mxGeometry x="1536" y="1378" width="395" height="70" as="geometry" />
        </mxCell>
        <mxCell id="cmbBCZXr3KO4VdV7eKeR-104" value="Solved&lt;br style=&quot;border-color: var(--border-color);&quot;&gt;Factor Graph G" style="text;html=1;strokeColor=none;fillColor=none;align=center;verticalAlign=middle;whiteSpace=wrap;rounded=0;" parent="1" vertex="1">
          <mxGeometry x="2255" y="1293" width="60" height="30" as="geometry" />
        </mxCell>
        <mxCell id="cmbBCZXr3KO4VdV7eKeR-174" style="edgeStyle=orthogonalEdgeStyle;rounded=0;orthogonalLoop=1;jettySize=auto;html=1;" parent="1" source="cmbBCZXr3KO4VdV7eKeR-106" target="cmbBCZXr3KO4VdV7eKeR-72" edge="1">
          <mxGeometry relative="1" as="geometry">
            <Array as="points">
              <mxPoint x="1487" y="1225" />
              <mxPoint x="1487" y="1308" />
            </Array>
          </mxGeometry>
        </mxCell>
        <mxCell id="cmbBCZXr3KO4VdV7eKeR-106" value="Anomaly Detector" style="rounded=0;whiteSpace=wrap;html=1;fillColor=#dae8fc;strokeColor=#6c8ebf;" parent="1" vertex="1">
          <mxGeometry x="1374.25" y="1189.5" width="89" height="70" as="geometry" />
        </mxCell>
        <mxCell id="cmbBCZXr3KO4VdV7eKeR-107" value="&lt;font style=&quot;font-size: 20px;&quot;&gt;X0&lt;/font&gt;" style="ellipse;whiteSpace=wrap;html=1;aspect=fixed;" parent="1" vertex="1">
          <mxGeometry x="1171" y="1630" width="50" height="50" as="geometry" />
        </mxCell>
        <mxCell id="cmbBCZXr3KO4VdV7eKeR-109" value="&lt;font style=&quot;font-size: 20px;&quot;&gt;X5&lt;/font&gt;" style="ellipse;whiteSpace=wrap;html=1;aspect=fixed;" parent="1" vertex="1">
          <mxGeometry x="1932" y="1630" width="50" height="50" as="geometry" />
        </mxCell>
        <mxCell id="cmbBCZXr3KO4VdV7eKeR-111" value="" style="endArrow=classic;html=1;rounded=0;" parent="1" edge="1">
          <mxGeometry width="50" height="50" relative="1" as="geometry">
            <mxPoint x="1186" y="1800" as="sourcePoint" />
            <mxPoint x="2058.6666666666665" y="1806" as="targetPoint" />
          </mxGeometry>
        </mxCell>
        <mxCell id="cmbBCZXr3KO4VdV7eKeR-112" value="" style="rhombus;whiteSpace=wrap;html=1;" parent="1" vertex="1">
          <mxGeometry x="1187.5" y="1696" width="17" height="27" as="geometry" />
        </mxCell>
        <mxCell id="cmbBCZXr3KO4VdV7eKeR-113" value="" style="rhombus;whiteSpace=wrap;html=1;" parent="1" vertex="1">
          <mxGeometry x="1248" y="1696" width="17" height="27" as="geometry" />
        </mxCell>
        <mxCell id="cmbBCZXr3KO4VdV7eKeR-114" value="" style="rhombus;whiteSpace=wrap;html=1;" parent="1" vertex="1">
          <mxGeometry x="1310" y="1696" width="17" height="27" as="geometry" />
        </mxCell>
        <mxCell id="cmbBCZXr3KO4VdV7eKeR-115" value="" style="rhombus;whiteSpace=wrap;html=1;" parent="1" vertex="1">
          <mxGeometry x="1372" y="1696" width="17" height="27" as="geometry" />
        </mxCell>
        <mxCell id="cmbBCZXr3KO4VdV7eKeR-116" value="" style="rhombus;whiteSpace=wrap;html=1;" parent="1" vertex="1">
          <mxGeometry x="1433.75" y="1696" width="17" height="27" as="geometry" />
        </mxCell>
        <mxCell id="cmbBCZXr3KO4VdV7eKeR-117" value="" style="rhombus;whiteSpace=wrap;html=1;" parent="1" vertex="1">
          <mxGeometry x="1500" y="1696" width="17" height="27" as="geometry" />
        </mxCell>
        <mxCell id="cmbBCZXr3KO4VdV7eKeR-118" value="" style="rhombus;whiteSpace=wrap;html=1;" parent="1" vertex="1">
          <mxGeometry x="1564.25" y="1696" width="17" height="27" as="geometry" />
        </mxCell>
        <mxCell id="cmbBCZXr3KO4VdV7eKeR-119" value="" style="rhombus;whiteSpace=wrap;html=1;" parent="1" vertex="1">
          <mxGeometry x="1628" y="1696" width="17" height="27" as="geometry" />
        </mxCell>
        <mxCell id="cmbBCZXr3KO4VdV7eKeR-120" value="" style="rhombus;whiteSpace=wrap;html=1;" parent="1" vertex="1">
          <mxGeometry x="1691.5" y="1696" width="17" height="27" as="geometry" />
        </mxCell>
        <mxCell id="cmbBCZXr3KO4VdV7eKeR-121" value="" style="rhombus;whiteSpace=wrap;html=1;" parent="1" vertex="1">
          <mxGeometry x="1752" y="1696" width="17" height="27" as="geometry" />
        </mxCell>
        <mxCell id="cmbBCZXr3KO4VdV7eKeR-122" value="" style="rhombus;whiteSpace=wrap;html=1;" parent="1" vertex="1">
          <mxGeometry x="1812" y="1696" width="17" height="27" as="geometry" />
        </mxCell>
        <mxCell id="cmbBCZXr3KO4VdV7eKeR-123" value="" style="rhombus;whiteSpace=wrap;html=1;" parent="1" vertex="1">
          <mxGeometry x="1872" y="1696" width="17" height="27" as="geometry" />
        </mxCell>
        <mxCell id="cmbBCZXr3KO4VdV7eKeR-126" value="" style="rhombus;whiteSpace=wrap;html=1;" parent="1" vertex="1">
          <mxGeometry x="1948.5" y="1702" width="17" height="27" as="geometry" />
        </mxCell>
        <mxCell id="cmbBCZXr3KO4VdV7eKeR-127" value="IMU" style="text;html=1;strokeColor=none;fillColor=none;align=center;verticalAlign=middle;whiteSpace=wrap;rounded=0;" parent="1" vertex="1">
          <mxGeometry x="1182" y="1736" width="28" height="21" as="geometry" />
        </mxCell>
        <mxCell id="cmbBCZXr3KO4VdV7eKeR-128" value="IMU" style="text;html=1;strokeColor=none;fillColor=none;align=center;verticalAlign=middle;whiteSpace=wrap;rounded=0;" parent="1" vertex="1">
          <mxGeometry x="1304.5" y="1736" width="28" height="21" as="geometry" />
        </mxCell>
        <mxCell id="cmbBCZXr3KO4VdV7eKeR-129" value="IMU" style="text;html=1;strokeColor=none;fillColor=none;align=center;verticalAlign=middle;whiteSpace=wrap;rounded=0;" parent="1" vertex="1">
          <mxGeometry x="1618.75" y="1741" width="28" height="21" as="geometry" />
        </mxCell>
        <mxCell id="cmbBCZXr3KO4VdV7eKeR-130" value="Enc" style="text;html=1;strokeColor=none;fillColor=none;align=center;verticalAlign=middle;whiteSpace=wrap;rounded=0;" parent="1" vertex="1">
          <mxGeometry x="1242.5" y="1736" width="28" height="21" as="geometry" />
        </mxCell>
        <mxCell id="cmbBCZXr3KO4VdV7eKeR-131" value="Enc" style="text;html=1;strokeColor=none;fillColor=none;align=center;verticalAlign=middle;whiteSpace=wrap;rounded=0;" parent="1" vertex="1">
          <mxGeometry x="1366.5" y="1736" width="28" height="21" as="geometry" />
        </mxCell>
        <mxCell id="cmbBCZXr3KO4VdV7eKeR-132" value="Enc" style="text;html=1;strokeColor=none;fillColor=none;align=center;verticalAlign=middle;whiteSpace=wrap;rounded=0;" parent="1" vertex="1">
          <mxGeometry x="1555.5" y="1741" width="28" height="21" as="geometry" />
        </mxCell>
        <mxCell id="cmbBCZXr3KO4VdV7eKeR-133" value="GPS" style="text;html=1;strokeColor=none;fillColor=none;align=center;verticalAlign=middle;whiteSpace=wrap;rounded=0;" parent="1" vertex="1">
          <mxGeometry x="1491.5" y="1739" width="28" height="21" as="geometry" />
        </mxCell>
        <mxCell id="cmbBCZXr3KO4VdV7eKeR-134" value="L" style="text;html=1;strokeColor=none;fillColor=none;align=center;verticalAlign=middle;whiteSpace=wrap;rounded=0;" parent="1" vertex="1">
          <mxGeometry x="1428.25" y="1736" width="28" height="21" as="geometry" />
        </mxCell>
        <mxCell id="cmbBCZXr3KO4VdV7eKeR-135" value="IMU" style="text;html=1;strokeColor=none;fillColor=none;align=center;verticalAlign=middle;whiteSpace=wrap;rounded=0;" parent="1" vertex="1">
          <mxGeometry x="1682.5" y="1741" width="28" height="21" as="geometry" />
        </mxCell>
        <mxCell id="cmbBCZXr3KO4VdV7eKeR-136" value="Enc" style="text;html=1;strokeColor=none;fillColor=none;align=center;verticalAlign=middle;whiteSpace=wrap;rounded=0;" parent="1" vertex="1">
          <mxGeometry x="1746.5" y="1741" width="28" height="21" as="geometry" />
        </mxCell>
        <mxCell id="cmbBCZXr3KO4VdV7eKeR-137" value="L" style="text;html=1;strokeColor=none;fillColor=none;align=center;verticalAlign=middle;whiteSpace=wrap;rounded=0;" parent="1" vertex="1">
          <mxGeometry x="1806.5" y="1739" width="28" height="21" as="geometry" />
        </mxCell>
        <mxCell id="cmbBCZXr3KO4VdV7eKeR-138" value="C" style="text;html=1;strokeColor=none;fillColor=none;align=center;verticalAlign=middle;whiteSpace=wrap;rounded=0;" parent="1" vertex="1">
          <mxGeometry x="1943" y="1739" width="28" height="21" as="geometry" />
        </mxCell>
        <mxCell id="cmbBCZXr3KO4VdV7eKeR-139" value="GPS" style="text;html=1;strokeColor=none;fillColor=none;align=center;verticalAlign=middle;whiteSpace=wrap;rounded=0;" parent="1" vertex="1">
          <mxGeometry x="1866.5" y="1739" width="28" height="21" as="geometry" />
        </mxCell>
        <mxCell id="cmbBCZXr3KO4VdV7eKeR-141" value="&lt;font style=&quot;font-size: 28px;&quot;&gt;t&lt;/font&gt;" style="text;html=1;strokeColor=none;fillColor=none;align=center;verticalAlign=middle;whiteSpace=wrap;rounded=0;" parent="1" vertex="1">
          <mxGeometry x="2022" y="1778" width="28" height="21" as="geometry" />
        </mxCell>
        <mxCell id="cmbBCZXr3KO4VdV7eKeR-143" value="&lt;font style=&quot;font-size: 28px;&quot;&gt;t&lt;/font&gt;&lt;font style=&quot;font-size: 18px;&quot;&gt;o&lt;/font&gt;" style="text;html=1;strokeColor=none;fillColor=none;align=center;verticalAlign=middle;whiteSpace=wrap;rounded=0;" parent="1" vertex="1">
          <mxGeometry x="1182" y="1772" width="28" height="21" as="geometry" />
        </mxCell>
        <mxCell id="cmbBCZXr3KO4VdV7eKeR-145" value="&lt;font style=&quot;font-size: 20px;&quot;&gt;X2&lt;/font&gt;" style="ellipse;whiteSpace=wrap;html=1;aspect=fixed;" parent="1" vertex="1">
          <mxGeometry x="1483.5" y="1630" width="50" height="50" as="geometry" />
        </mxCell>
        <mxCell id="cmbBCZXr3KO4VdV7eKeR-146" value="&lt;font style=&quot;font-size: 20px;&quot;&gt;X4&lt;/font&gt;" style="ellipse;whiteSpace=wrap;html=1;aspect=fixed;" parent="1" vertex="1">
          <mxGeometry x="1855.5" y="1630" width="50" height="50" as="geometry" />
        </mxCell>
        <mxCell id="cmbBCZXr3KO4VdV7eKeR-147" value="&lt;font style=&quot;font-size: 20px;&quot;&gt;M1&lt;/font&gt;" style="ellipse;whiteSpace=wrap;html=1;aspect=fixed;" parent="1" vertex="1">
          <mxGeometry x="1417.25" y="1854" width="50" height="50" as="geometry" />
        </mxCell>
        <mxCell id="cmbBCZXr3KO4VdV7eKeR-148" value="&lt;font style=&quot;font-size: 20px;&quot;&gt;M2&lt;/font&gt;" style="ellipse;whiteSpace=wrap;html=1;aspect=fixed;" parent="1" vertex="1">
          <mxGeometry x="1795.5" y="1854" width="50" height="50" as="geometry" />
        </mxCell>
        <mxCell id="cmbBCZXr3KO4VdV7eKeR-149" value="&lt;font style=&quot;font-size: 20px;&quot;&gt;X1&lt;/font&gt;" style="ellipse;whiteSpace=wrap;html=1;aspect=fixed;" parent="1" vertex="1">
          <mxGeometry x="1417.25" y="1630" width="50" height="50" as="geometry" />
        </mxCell>
        <mxCell id="cmbBCZXr3KO4VdV7eKeR-150" value="&lt;font style=&quot;font-size: 20px;&quot;&gt;X3&lt;/font&gt;" style="ellipse;whiteSpace=wrap;html=1;aspect=fixed;" parent="1" vertex="1">
          <mxGeometry x="1795.5" y="1630" width="50" height="50" as="geometry" />
        </mxCell>
        <mxCell id="cmbBCZXr3KO4VdV7eKeR-151" value="" style="endArrow=classic;html=1;rounded=0;" parent="1" source="cmbBCZXr3KO4VdV7eKeR-107" target="cmbBCZXr3KO4VdV7eKeR-145" edge="1">
          <mxGeometry relative="1" as="geometry">
            <mxPoint x="1228.52" y="1630" as="sourcePoint" />
            <mxPoint x="1491.5016572138998" y="1625.1162650548013" as="targetPoint" />
            <Array as="points">
              <mxPoint x="1326.52" y="1592" />
              <mxPoint x="1441" y="1601" />
            </Array>
          </mxGeometry>
        </mxCell>
        <mxCell id="cmbBCZXr3KO4VdV7eKeR-152" value="IMU&amp;nbsp;&lt;br&gt;Preint" style="edgeLabel;resizable=0;html=1;align=center;verticalAlign=middle;" parent="cmbBCZXr3KO4VdV7eKeR-151" connectable="0" vertex="1">
          <mxGeometry relative="1" as="geometry">
            <mxPoint x="-19" y="-25" as="offset" />
          </mxGeometry>
        </mxCell>
        <mxCell id="cmbBCZXr3KO4VdV7eKeR-153" value="" style="endArrow=classic;html=1;rounded=0;" parent="1" source="cmbBCZXr3KO4VdV7eKeR-107" target="cmbBCZXr3KO4VdV7eKeR-149" edge="1">
          <mxGeometry relative="1" as="geometry">
            <mxPoint x="1231" y="1665" as="sourcePoint" />
            <mxPoint x="1427.2500000000414" y="1665" as="targetPoint" />
            <Array as="points">
              <mxPoint x="1326" y="1671" />
            </Array>
          </mxGeometry>
        </mxCell>
        <mxCell id="cmbBCZXr3KO4VdV7eKeR-154" value="Enc&amp;nbsp;&lt;br&gt;Preint" style="edgeLabel;resizable=0;html=1;align=center;verticalAlign=middle;" parent="cmbBCZXr3KO4VdV7eKeR-153" connectable="0" vertex="1">
          <mxGeometry relative="1" as="geometry" />
        </mxCell>
        <mxCell id="cmbBCZXr3KO4VdV7eKeR-155" value="" style="endArrow=classic;html=1;rounded=0;" parent="1" target="cmbBCZXr3KO4VdV7eKeR-145" edge="1">
          <mxGeometry relative="1" as="geometry">
            <mxPoint x="1509" y="1557" as="sourcePoint" />
            <mxPoint x="1427.2500000000414" y="1665" as="targetPoint" />
            <Array as="points" />
          </mxGeometry>
        </mxCell>
        <mxCell id="cmbBCZXr3KO4VdV7eKeR-156" value="GPS&lt;br&gt;Prior" style="edgeLabel;resizable=0;html=1;align=center;verticalAlign=middle;" parent="cmbBCZXr3KO4VdV7eKeR-155" connectable="0" vertex="1">
          <mxGeometry relative="1" as="geometry" />
        </mxCell>
        <mxCell id="cmbBCZXr3KO4VdV7eKeR-157" value="" style="endArrow=classic;html=1;rounded=0;" parent="1" source="cmbBCZXr3KO4VdV7eKeR-149" target="cmbBCZXr3KO4VdV7eKeR-147" edge="1">
          <mxGeometry relative="1" as="geometry">
            <mxPoint x="1486.75" y="1793" as="sourcePoint" />
            <mxPoint x="1486.75" y="1866" as="targetPoint" />
            <Array as="points" />
          </mxGeometry>
        </mxCell>
        <mxCell id="cmbBCZXr3KO4VdV7eKeR-158" value="Lidar&lt;br&gt;landmark" style="edgeLabel;resizable=0;html=1;align=center;verticalAlign=middle;" parent="cmbBCZXr3KO4VdV7eKeR-157" connectable="0" vertex="1">
          <mxGeometry relative="1" as="geometry">
            <mxPoint x="25" y="11" as="offset" />
          </mxGeometry>
        </mxCell>
        <mxCell id="cmbBCZXr3KO4VdV7eKeR-159" value="" style="endArrow=classic;html=1;rounded=0;" parent="1" source="cmbBCZXr3KO4VdV7eKeR-149" target="cmbBCZXr3KO4VdV7eKeR-148" edge="1">
          <mxGeometry relative="1" as="geometry">
            <mxPoint x="1529" y="1577" as="sourcePoint" />
            <mxPoint x="1529" y="1650" as="targetPoint" />
            <Array as="points" />
          </mxGeometry>
        </mxCell>
        <mxCell id="cmbBCZXr3KO4VdV7eKeR-160" value="Lidar&lt;br style=&quot;border-color: var(--border-color);&quot;&gt;landmark" style="edgeLabel;resizable=0;html=1;align=center;verticalAlign=middle;" parent="cmbBCZXr3KO4VdV7eKeR-159" connectable="0" vertex="1">
          <mxGeometry relative="1" as="geometry">
            <mxPoint x="-48" y="9" as="offset" />
          </mxGeometry>
        </mxCell>
        <mxCell id="cmbBCZXr3KO4VdV7eKeR-161" value="" style="endArrow=classic;html=1;rounded=0;" parent="1" source="cmbBCZXr3KO4VdV7eKeR-150" target="cmbBCZXr3KO4VdV7eKeR-147" edge="1">
          <mxGeometry relative="1" as="geometry">
            <mxPoint x="1452" y="1690" as="sourcePoint" />
            <mxPoint x="1452" y="1864" as="targetPoint" />
            <Array as="points">
              <mxPoint x="1631" y="1773" />
            </Array>
          </mxGeometry>
        </mxCell>
        <mxCell id="cmbBCZXr3KO4VdV7eKeR-162" value="Lidar&lt;br&gt;landmark" style="edgeLabel;resizable=0;html=1;align=center;verticalAlign=middle;" parent="cmbBCZXr3KO4VdV7eKeR-161" connectable="0" vertex="1">
          <mxGeometry relative="1" as="geometry">
            <mxPoint x="-18" y="53" as="offset" />
          </mxGeometry>
        </mxCell>
        <mxCell id="cmbBCZXr3KO4VdV7eKeR-163" value="" style="endArrow=classic;html=1;rounded=0;" parent="1" source="cmbBCZXr3KO4VdV7eKeR-150" target="cmbBCZXr3KO4VdV7eKeR-148" edge="1">
          <mxGeometry relative="1" as="geometry">
            <mxPoint x="1462" y="1700" as="sourcePoint" />
            <mxPoint x="1462" y="1874" as="targetPoint" />
            <Array as="points" />
          </mxGeometry>
        </mxCell>
        <mxCell id="cmbBCZXr3KO4VdV7eKeR-164" value="Lidar&lt;br&gt;landmark" style="edgeLabel;resizable=0;html=1;align=center;verticalAlign=middle;" parent="cmbBCZXr3KO4VdV7eKeR-163" connectable="0" vertex="1">
          <mxGeometry relative="1" as="geometry">
            <mxPoint x="-25" y="11" as="offset" />
          </mxGeometry>
        </mxCell>
        <mxCell id="cmbBCZXr3KO4VdV7eKeR-165" value="" style="endArrow=classic;html=1;rounded=0;" parent="1" target="cmbBCZXr3KO4VdV7eKeR-146" edge="1">
          <mxGeometry relative="1" as="geometry">
            <mxPoint x="1880" y="1560" as="sourcePoint" />
            <mxPoint x="1880.12" y="1618" as="targetPoint" />
            <Array as="points" />
          </mxGeometry>
        </mxCell>
        <mxCell id="cmbBCZXr3KO4VdV7eKeR-166" value="GPS&lt;br&gt;Prior" style="edgeLabel;resizable=0;html=1;align=center;verticalAlign=middle;" parent="cmbBCZXr3KO4VdV7eKeR-165" connectable="0" vertex="1">
          <mxGeometry relative="1" as="geometry" />
        </mxCell>
        <mxCell id="cmbBCZXr3KO4VdV7eKeR-167" value="" style="endArrow=classic;html=1;rounded=0;" parent="1" source="cmbBCZXr3KO4VdV7eKeR-149" target="cmbBCZXr3KO4VdV7eKeR-150" edge="1">
          <mxGeometry relative="1" as="geometry">
            <mxPoint x="1651" y="1456" as="sourcePoint" />
            <mxPoint x="1651" y="1630" as="targetPoint" />
            <Array as="points">
              <mxPoint x="1547" y="1596" />
              <mxPoint x="1642" y="1565" />
            </Array>
          </mxGeometry>
        </mxCell>
        <mxCell id="cmbBCZXr3KO4VdV7eKeR-168" value="Lidar&lt;br&gt;odom" style="edgeLabel;resizable=0;html=1;align=center;verticalAlign=middle;" parent="cmbBCZXr3KO4VdV7eKeR-167" connectable="0" vertex="1">
          <mxGeometry relative="1" as="geometry">
            <mxPoint x="9" y="19" as="offset" />
          </mxGeometry>
        </mxCell>
        <mxCell id="cmbBCZXr3KO4VdV7eKeR-171" value="&lt;span style=&quot;font-size: 20px;&quot;&gt;Output &lt;br&gt;Value&lt;/span&gt;" style="rounded=1;whiteSpace=wrap;html=1;" parent="1" vertex="1">
          <mxGeometry x="-20" y="2182" width="120" height="60" as="geometry" />
        </mxCell>
        <mxCell id="cmbBCZXr3KO4VdV7eKeR-177" style="edgeStyle=orthogonalEdgeStyle;rounded=0;orthogonalLoop=1;jettySize=auto;html=1;" parent="1" source="cmbBCZXr3KO4VdV7eKeR-175" target="cmbBCZXr3KO4VdV7eKeR-84" edge="1">
          <mxGeometry relative="1" as="geometry">
            <Array as="points">
              <mxPoint x="2097" y="1229" />
              <mxPoint x="2097" y="1308" />
            </Array>
          </mxGeometry>
        </mxCell>
        <mxCell id="cmbBCZXr3KO4VdV7eKeR-175" value="Anomaly Detector" style="rounded=0;whiteSpace=wrap;html=1;fillColor=#dae8fc;strokeColor=#6c8ebf;" parent="1" vertex="1">
          <mxGeometry x="1977" y="1193" width="89" height="70" as="geometry" />
        </mxCell>
        <mxCell id="uGEq2eV-W03FdyliBu1q-5" style="edgeStyle=orthogonalEdgeStyle;rounded=0;orthogonalLoop=1;jettySize=auto;html=1;" parent="1" source="uGEq2eV-W03FdyliBu1q-4" target="uGEq2eV-W03FdyliBu1q-2" edge="1">
          <mxGeometry relative="1" as="geometry" />
        </mxCell>
        <mxCell id="uGEq2eV-W03FdyliBu1q-4" value="Config" style="text;html=1;strokeColor=none;fillColor=none;align=center;verticalAlign=middle;whiteSpace=wrap;rounded=0;" parent="1" vertex="1">
          <mxGeometry x="1637" y="1109" width="60" height="30" as="geometry" />
        </mxCell>
        <mxCell id="uGEq2eV-W03FdyliBu1q-12" value="&lt;font style=&quot;font-size: 16px;&quot;&gt;Sub-Map Builder&lt;/font&gt;" style="text;html=1;strokeColor=none;fillColor=none;align=center;verticalAlign=middle;whiteSpace=wrap;rounded=0;" parent="1" vertex="1">
          <mxGeometry x="1650" y="1214" width="83" height="30" as="geometry" />
        </mxCell>
        <mxCell id="uGEq2eV-W03FdyliBu1q-15" style="edgeStyle=orthogonalEdgeStyle;rounded=0;orthogonalLoop=1;jettySize=auto;html=1;entryX=0;entryY=0;entryDx=0;entryDy=15;entryPerimeter=0;" parent="1" source="uGEq2eV-W03FdyliBu1q-14" target="uGEq2eV-W03FdyliBu1q-13" edge="1">
          <mxGeometry relative="1" as="geometry" />
        </mxCell>
        <mxCell id="uGEq2eV-W03FdyliBu1q-14" value="&lt;font style=&quot;font-size: 16px;&quot;&gt;Data Batch&lt;/font&gt;" style="rounded=1;whiteSpace=wrap;html=1;fillColor=#ffe6cc;strokeColor=#d79b00;" parent="1" vertex="1">
          <mxGeometry x="-1036" y="3110" width="78" height="47" as="geometry" />
        </mxCell>
        <mxCell id="uGEq2eV-W03FdyliBu1q-16" value="&lt;font style=&quot;font-size: 16px;&quot;&gt;Distributor&lt;/font&gt;" style="swimlane;html=1;fontStyle=1;align=center;verticalAlign=top;childLayout=stackLayout;horizontal=1;startSize=26;horizontalStack=0;resizeParent=1;resizeLast=0;collapsible=1;marginBottom=0;swimlaneFillColor=#ffffff;rounded=0;shadow=0;comic=0;labelBackgroundColor=none;strokeWidth=1;fillColor=none;fontFamily=Verdana;fontSize=12" parent="1" vertex="1">
          <mxGeometry x="-745" y="3223" width="388" height="152" as="geometry" />
        </mxCell>
        <mxCell id="uGEq2eV-W03FdyliBu1q-17" value="&lt;font style=&quot;font-size: 14px;&quot;&gt;+ params: HydraConfig&lt;/font&gt;" style="text;html=1;strokeColor=none;fillColor=none;align=left;verticalAlign=top;spacingLeft=4;spacingRight=4;whiteSpace=wrap;overflow=hidden;rotatable=0;points=[[0,0.5],[1,0.5]];portConstraint=eastwest;" parent="uGEq2eV-W03FdyliBu1q-16" vertex="1">
          <mxGeometry y="26" width="388" height="20" as="geometry" />
        </mxCell>
        <mxCell id="uGEq2eV-W03FdyliBu1q-23" value="&lt;font style=&quot;font-size: 14px;&quot;&gt;+ modules_dict: dict[Type[Sensor], Type[ExternalModule]]&lt;/font&gt;" style="text;html=1;strokeColor=none;fillColor=none;align=left;verticalAlign=top;spacingLeft=4;spacingRight=4;whiteSpace=wrap;overflow=hidden;rotatable=0;points=[[0,0.5],[1,0.5]];portConstraint=eastwest;" parent="uGEq2eV-W03FdyliBu1q-16" vertex="1">
          <mxGeometry y="46" width="388" height="20" as="geometry" />
        </mxCell>
        <mxCell id="uGEq2eV-W03FdyliBu1q-19" value="" style="line;html=1;strokeWidth=1;fillColor=none;align=left;verticalAlign=middle;spacingTop=-1;spacingLeft=3;spacingRight=3;rotatable=0;labelPosition=right;points=[];portConstraint=eastwest;" parent="uGEq2eV-W03FdyliBu1q-16" vertex="1">
          <mxGeometry y="66" width="388" height="8" as="geometry" />
        </mxCell>
        <mxCell id="uGEq2eV-W03FdyliBu1q-20" value="&lt;font style=&quot;font-size: 14px;&quot;&gt;- init(Config)&lt;/font&gt;" style="text;html=1;strokeColor=none;fillColor=none;align=left;verticalAlign=top;spacingLeft=4;spacingRight=4;whiteSpace=wrap;overflow=hidden;rotatable=0;points=[[0,0.5],[1,0.5]];portConstraint=eastwest;" parent="uGEq2eV-W03FdyliBu1q-16" vertex="1">
          <mxGeometry y="74" width="388" height="26" as="geometry" />
        </mxCell>
        <mxCell id="uGEq2eV-W03FdyliBu1q-22" value="&lt;font style=&quot;font-size: 14px;&quot;&gt;- next_element()&lt;/font&gt;" style="text;html=1;strokeColor=none;fillColor=none;align=left;verticalAlign=top;spacingLeft=4;spacingRight=4;whiteSpace=wrap;overflow=hidden;rotatable=0;points=[[0,0.5],[1,0.5]];portConstraint=eastwest;" parent="uGEq2eV-W03FdyliBu1q-16" vertex="1">
          <mxGeometry y="100" width="388" height="26" as="geometry" />
        </mxCell>
        <mxCell id="uGEq2eV-W03FdyliBu1q-25" value="&lt;font style=&quot;font-size: 14px;&quot;&gt;- _sort_element()&lt;/font&gt;" style="text;html=1;strokeColor=none;fillColor=none;align=left;verticalAlign=top;spacingLeft=4;spacingRight=4;whiteSpace=wrap;overflow=hidden;rotatable=0;points=[[0,0.5],[1,0.5]];portConstraint=eastwest;" parent="uGEq2eV-W03FdyliBu1q-16" vertex="1">
          <mxGeometry y="126" width="388" height="26" as="geometry" />
        </mxCell>
        <mxCell id="uGEq2eV-W03FdyliBu1q-26" value="&lt;font style=&quot;font-size: 16px;&quot;&gt;ExternalModule(ABC)&lt;/font&gt;" style="swimlane;html=1;fontStyle=1;align=center;verticalAlign=top;childLayout=stackLayout;horizontal=1;startSize=26;horizontalStack=0;resizeParent=1;resizeLast=0;collapsible=1;marginBottom=0;swimlaneFillColor=#ffffff;rounded=0;shadow=0;comic=0;labelBackgroundColor=none;strokeWidth=1;fillColor=none;fontFamily=Verdana;fontSize=12" parent="1" vertex="1">
          <mxGeometry x="-299.75" y="3223" width="388" height="244" as="geometry" />
        </mxCell>
        <mxCell id="uGEq2eV-W03FdyliBu1q-36" value="&lt;font style=&quot;font-size: 14px;&quot;&gt;+ params&amp;nbsp;&lt;/font&gt;" style="text;html=1;strokeColor=none;fillColor=none;align=left;verticalAlign=top;spacingLeft=4;spacingRight=4;whiteSpace=wrap;overflow=hidden;rotatable=0;points=[[0,0.5],[1,0.5]];portConstraint=eastwest;" parent="uGEq2eV-W03FdyliBu1q-26" vertex="1">
          <mxGeometry y="26" width="388" height="20" as="geometry" />
        </mxCell>
        <mxCell id="uGEq2eV-W03FdyliBu1q-33" value="&lt;font style=&quot;font-size: 14px;&quot;&gt;+ input_queue: deque[Element]&amp;nbsp;&lt;/font&gt;" style="text;html=1;strokeColor=none;fillColor=none;align=left;verticalAlign=top;spacingLeft=4;spacingRight=4;whiteSpace=wrap;overflow=hidden;rotatable=0;points=[[0,0.5],[1,0.5]];portConstraint=eastwest;" parent="uGEq2eV-W03FdyliBu1q-26" vertex="1">
          <mxGeometry y="46" width="388" height="20" as="geometry" />
        </mxCell>
        <mxCell id="uGEq2eV-W03FdyliBu1q-28" value="&lt;font style=&quot;font-size: 14px;&quot;&gt;+ output_queue: deque[Element]&amp;nbsp;&lt;/font&gt;" style="text;html=1;strokeColor=none;fillColor=none;align=left;verticalAlign=top;spacingLeft=4;spacingRight=4;whiteSpace=wrap;overflow=hidden;rotatable=0;points=[[0,0.5],[1,0.5]];portConstraint=eastwest;" parent="uGEq2eV-W03FdyliBu1q-26" vertex="1">
          <mxGeometry y="66" width="388" height="20" as="geometry" />
        </mxCell>
        <mxCell id="uGEq2eV-W03FdyliBu1q-40" value="&lt;font style=&quot;font-size: 14px;&quot;&gt;+ output_value: (Optional)&amp;nbsp;&lt;/font&gt;" style="text;html=1;strokeColor=none;fillColor=none;align=left;verticalAlign=top;spacingLeft=4;spacingRight=4;whiteSpace=wrap;overflow=hidden;rotatable=0;points=[[0,0.5],[1,0.5]];portConstraint=eastwest;" parent="uGEq2eV-W03FdyliBu1q-26" vertex="1">
          <mxGeometry y="86" width="388" height="20" as="geometry" />
        </mxCell>
        <mxCell id="uGEq2eV-W03FdyliBu1q-29" value="" style="line;html=1;strokeWidth=1;fillColor=none;align=left;verticalAlign=middle;spacingTop=-1;spacingLeft=3;spacingRight=3;rotatable=0;labelPosition=right;points=[];portConstraint=eastwest;" parent="uGEq2eV-W03FdyliBu1q-26" vertex="1">
          <mxGeometry y="106" width="388" height="8" as="geometry" />
        </mxCell>
        <mxCell id="uGEq2eV-W03FdyliBu1q-37" value="&lt;font style=&quot;font-size: 14px;&quot;&gt;- init(HydraConfig)&lt;/font&gt;" style="text;html=1;strokeColor=none;fillColor=none;align=left;verticalAlign=top;spacingLeft=4;spacingRight=4;whiteSpace=wrap;overflow=hidden;rotatable=0;points=[[0,0.5],[1,0.5]];portConstraint=eastwest;" parent="uGEq2eV-W03FdyliBu1q-26" vertex="1">
          <mxGeometry y="114" width="388" height="26" as="geometry" />
        </mxCell>
        <mxCell id="uGEq2eV-W03FdyliBu1q-35" value="&lt;font style=&quot;font-size: 14px;&quot;&gt;- process()&lt;/font&gt;" style="text;html=1;strokeColor=none;fillColor=none;align=left;verticalAlign=top;spacingLeft=4;spacingRight=4;whiteSpace=wrap;overflow=hidden;rotatable=0;points=[[0,0.5],[1,0.5]];portConstraint=eastwest;" parent="uGEq2eV-W03FdyliBu1q-26" vertex="1">
          <mxGeometry y="140" width="388" height="26" as="geometry" />
        </mxCell>
        <mxCell id="uGEq2eV-W03FdyliBu1q-34" value="&lt;font style=&quot;font-size: 14px;&quot;&gt;- convert(input_element)&lt;/font&gt;" style="text;html=1;strokeColor=none;fillColor=none;align=left;verticalAlign=top;spacingLeft=4;spacingRight=4;whiteSpace=wrap;overflow=hidden;rotatable=0;points=[[0,0.5],[1,0.5]];portConstraint=eastwest;" parent="uGEq2eV-W03FdyliBu1q-26" vertex="1">
          <mxGeometry y="166" width="388" height="26" as="geometry" />
        </mxCell>
        <mxCell id="uGEq2eV-W03FdyliBu1q-30" value="&lt;font style=&quot;font-size: 14px;&quot;&gt;- convert(output_element)&lt;/font&gt;" style="text;html=1;strokeColor=none;fillColor=none;align=left;verticalAlign=top;spacingLeft=4;spacingRight=4;whiteSpace=wrap;overflow=hidden;rotatable=0;points=[[0,0.5],[1,0.5]];portConstraint=eastwest;" parent="uGEq2eV-W03FdyliBu1q-26" vertex="1">
          <mxGeometry y="192" width="388" height="26" as="geometry" />
        </mxCell>
        <mxCell id="uGEq2eV-W03FdyliBu1q-38" value="&lt;font style=&quot;font-size: 14px;&quot;&gt;- flush()&lt;/font&gt;" style="text;html=1;strokeColor=none;fillColor=none;align=left;verticalAlign=top;spacingLeft=4;spacingRight=4;whiteSpace=wrap;overflow=hidden;rotatable=0;points=[[0,0.5],[1,0.5]];portConstraint=eastwest;" parent="uGEq2eV-W03FdyliBu1q-26" vertex="1">
          <mxGeometry y="218" width="388" height="26" as="geometry" />
        </mxCell>
        <mxCell id="LV2NHQDLvLL5Tr6K8rxL-4" style="edgeStyle=orthogonalEdgeStyle;orthogonalLoop=1;jettySize=auto;html=1;" edge="1" parent="1" source="LV2NHQDLvLL5Tr6K8rxL-64" target="LV2NHQDLvLL5Tr6K8rxL-51">
          <mxGeometry relative="1" as="geometry">
            <mxPoint x="2034.8900000000003" y="2264" as="targetPoint" />
            <mxPoint x="2076.39" y="2191.5" as="sourcePoint" />
            <Array as="points">
              <mxPoint x="1905" y="2180" />
            </Array>
          </mxGeometry>
        </mxCell>
        <mxCell id="LV2NHQDLvLL5Tr6K8rxL-5" value="&lt;font style=&quot;font-size: 18px;&quot;&gt;+&lt;/font&gt;" style="edgeLabel;html=1;align=center;verticalAlign=middle;resizable=0;points=[];" vertex="1" connectable="0" parent="LV2NHQDLvLL5Tr6K8rxL-4">
          <mxGeometry x="0.0586" y="-1" relative="1" as="geometry">
            <mxPoint x="97" y="-223" as="offset" />
          </mxGeometry>
        </mxCell>
        <mxCell id="LV2NHQDLvLL5Tr6K8rxL-7" style="edgeStyle=orthogonalEdgeStyle;orthogonalLoop=1;jettySize=auto;html=1;exitX=0.5;exitY=1;exitDx=0;exitDy=0;entryX=0.493;entryY=-0.028;entryDx=0;entryDy=0;entryPerimeter=0;" edge="1" parent="1" source="LV2NHQDLvLL5Tr6K8rxL-8" target="LV2NHQDLvLL5Tr6K8rxL-10">
          <mxGeometry relative="1" as="geometry" />
        </mxCell>
        <mxCell id="LV2NHQDLvLL5Tr6K8rxL-8" value="" style="ellipse;shape=startState;fillColor=#33FF33;strokeColor=#ff0000;fontColor=#000000;" vertex="1" parent="1">
          <mxGeometry x="2175.89" y="2014" width="30" height="30" as="geometry" />
        </mxCell>
        <mxCell id="LV2NHQDLvLL5Tr6K8rxL-9" style="edgeStyle=orthogonalEdgeStyle;orthogonalLoop=1;jettySize=auto;html=1;exitX=0.502;exitY=1.074;exitDx=0;exitDy=0;exitPerimeter=0;" edge="1" parent="1" source="LV2NHQDLvLL5Tr6K8rxL-10" target="LV2NHQDLvLL5Tr6K8rxL-64">
          <mxGeometry relative="1" as="geometry">
            <mxPoint x="2190.89" y="2144" as="targetPoint" />
          </mxGeometry>
        </mxCell>
        <mxCell id="LV2NHQDLvLL5Tr6K8rxL-10" value="DataBatch,&lt;br&gt;process_batch()" style="whiteSpace=wrap;html=1;align=center;" vertex="1" parent="1">
          <mxGeometry x="2140.89" y="2074" width="100" height="40" as="geometry" />
        </mxCell>
        <mxCell id="LV2NHQDLvLL5Tr6K8rxL-14" value="next_element()" style="rounded=0;whiteSpace=wrap;html=1;" vertex="1" parent="1">
          <mxGeometry x="2130.89" y="2508" width="120" height="27" as="geometry" />
        </mxCell>
        <mxCell id="LV2NHQDLvLL5Tr6K8rxL-29" value="Finish" style="ellipse;whiteSpace=wrap;html=1;align=center;fillColor=#0050ef;strokeColor=#001DBC;fontColor=#ffffff;" vertex="1" parent="1">
          <mxGeometry x="1853" y="2774" width="100" height="40" as="geometry" />
        </mxCell>
        <mxCell id="LV2NHQDLvLL5Tr6K8rxL-71" style="edgeStyle=orthogonalEdgeStyle;rounded=0;orthogonalLoop=1;jettySize=auto;html=1;" edge="1" parent="1" source="LV2NHQDLvLL5Tr6K8rxL-51" target="LV2NHQDLvLL5Tr6K8rxL-29">
          <mxGeometry relative="1" as="geometry" />
        </mxCell>
        <mxCell id="LV2NHQDLvLL5Tr6K8rxL-51" value="Backend_Manager.solve()" style="rounded=0;whiteSpace=wrap;html=1;fillColor=#d5e8d4;strokeColor=#82b366;" vertex="1" parent="1">
          <mxGeometry x="1824" y="2663" width="158" height="60" as="geometry" />
        </mxCell>
        <mxCell id="LV2NHQDLvLL5Tr6K8rxL-89" style="edgeStyle=orthogonalEdgeStyle;rounded=0;orthogonalLoop=1;jettySize=auto;html=1;" edge="1" parent="1" source="LV2NHQDLvLL5Tr6K8rxL-54" target="LV2NHQDLvLL5Tr6K8rxL-14">
          <mxGeometry relative="1" as="geometry" />
        </mxCell>
        <mxCell id="LV2NHQDLvLL5Tr6K8rxL-90" value="&lt;font style=&quot;font-size: 18px;&quot;&gt;-&lt;/font&gt;" style="edgeLabel;html=1;align=center;verticalAlign=middle;resizable=0;points=[];" vertex="1" connectable="0" parent="LV2NHQDLvLL5Tr6K8rxL-89">
          <mxGeometry x="-0.3756" y="1" relative="1" as="geometry">
            <mxPoint x="8" y="4" as="offset" />
          </mxGeometry>
        </mxCell>
        <mxCell id="LV2NHQDLvLL5Tr6K8rxL-96" style="edgeStyle=orthogonalEdgeStyle;rounded=0;orthogonalLoop=1;jettySize=auto;html=1;" edge="1" parent="1" source="LV2NHQDLvLL5Tr6K8rxL-54" target="LV2NHQDLvLL5Tr6K8rxL-92">
          <mxGeometry relative="1" as="geometry">
            <Array as="points">
              <mxPoint x="2051" y="2421" />
            </Array>
          </mxGeometry>
        </mxCell>
        <mxCell id="LV2NHQDLvLL5Tr6K8rxL-98" value="&lt;font style=&quot;font-size: 18px;&quot;&gt;+&lt;/font&gt;" style="edgeLabel;html=1;align=center;verticalAlign=middle;resizable=0;points=[];" vertex="1" connectable="0" parent="LV2NHQDLvLL5Tr6K8rxL-96">
          <mxGeometry x="-0.3054" y="-1" relative="1" as="geometry">
            <mxPoint as="offset" />
          </mxGeometry>
        </mxCell>
        <mxCell id="LV2NHQDLvLL5Tr6K8rxL-54" value="Enough elements to add&#xa; Node ?" style="rhombus;fillColor=#ffffc0;strokeColor=#ff0000;" vertex="1" parent="1">
          <mxGeometry x="2094.69" y="2384" width="192.39" height="73" as="geometry" />
        </mxCell>
        <mxCell id="LV2NHQDLvLL5Tr6K8rxL-77" style="edgeStyle=orthogonalEdgeStyle;rounded=0;orthogonalLoop=1;jettySize=auto;html=1;" edge="1" parent="1" source="LV2NHQDLvLL5Tr6K8rxL-64" target="LV2NHQDLvLL5Tr6K8rxL-76">
          <mxGeometry relative="1" as="geometry" />
        </mxCell>
        <mxCell id="LV2NHQDLvLL5Tr6K8rxL-79" value="&lt;font style=&quot;font-size: 18px;&quot;&gt;-&lt;/font&gt;" style="edgeLabel;html=1;align=center;verticalAlign=middle;resizable=0;points=[];" vertex="1" connectable="0" parent="LV2NHQDLvLL5Tr6K8rxL-77">
          <mxGeometry x="-0.7713" y="-1" relative="1" as="geometry">
            <mxPoint x="10" y="19" as="offset" />
          </mxGeometry>
        </mxCell>
        <mxCell id="LV2NHQDLvLL5Tr6K8rxL-64" value="Sub Map ready?" style="rhombus;fillColor=#ffffc0;strokeColor=#ff0000;" vertex="1" parent="1">
          <mxGeometry x="2094.69" y="2143" width="192.39" height="73" as="geometry" />
        </mxCell>
        <mxCell id="LV2NHQDLvLL5Tr6K8rxL-74" style="edgeStyle=orthogonalEdgeStyle;rounded=0;orthogonalLoop=1;jettySize=auto;html=1;" edge="1" parent="1" source="LV2NHQDLvLL5Tr6K8rxL-65" target="LV2NHQDLvLL5Tr6K8rxL-73">
          <mxGeometry relative="1" as="geometry" />
        </mxCell>
        <mxCell id="LV2NHQDLvLL5Tr6K8rxL-65" value="create factors" style="rounded=0;whiteSpace=wrap;html=1;" vertex="1" parent="1">
          <mxGeometry x="2130.89" y="2648" width="120" height="27" as="geometry" />
        </mxCell>
        <mxCell id="LV2NHQDLvLL5Tr6K8rxL-84" style="edgeStyle=orthogonalEdgeStyle;rounded=0;orthogonalLoop=1;jettySize=auto;html=1;" edge="1" parent="1" source="LV2NHQDLvLL5Tr6K8rxL-73" target="LV2NHQDLvLL5Tr6K8rxL-64">
          <mxGeometry relative="1" as="geometry">
            <Array as="points">
              <mxPoint x="2516" y="2725" />
              <mxPoint x="2516" y="2180" />
            </Array>
          </mxGeometry>
        </mxCell>
        <mxCell id="LV2NHQDLvLL5Tr6K8rxL-73" value="sub map ready = True" style="rounded=0;whiteSpace=wrap;html=1;" vertex="1" parent="1">
          <mxGeometry x="2127" y="2712" width="129" height="27" as="geometry" />
        </mxCell>
        <mxCell id="LV2NHQDLvLL5Tr6K8rxL-82" style="edgeStyle=orthogonalEdgeStyle;rounded=0;orthogonalLoop=1;jettySize=auto;html=1;" edge="1" parent="1" source="LV2NHQDLvLL5Tr6K8rxL-76" target="LV2NHQDLvLL5Tr6K8rxL-65">
          <mxGeometry relative="1" as="geometry">
            <Array as="points">
              <mxPoint x="2417" y="2313" />
              <mxPoint x="2417" y="2660" />
            </Array>
          </mxGeometry>
        </mxCell>
        <mxCell id="LV2NHQDLvLL5Tr6K8rxL-83" value="&lt;font style=&quot;font-size: 18px;&quot;&gt;+&lt;/font&gt;" style="edgeLabel;html=1;align=center;verticalAlign=middle;resizable=0;points=[];" vertex="1" connectable="0" parent="LV2NHQDLvLL5Tr6K8rxL-82">
          <mxGeometry x="-0.8667" y="-2" relative="1" as="geometry">
            <mxPoint as="offset" />
          </mxGeometry>
        </mxCell>
        <mxCell id="LV2NHQDLvLL5Tr6K8rxL-88" style="edgeStyle=orthogonalEdgeStyle;rounded=0;orthogonalLoop=1;jettySize=auto;html=1;" edge="1" parent="1" source="LV2NHQDLvLL5Tr6K8rxL-76" target="LV2NHQDLvLL5Tr6K8rxL-54">
          <mxGeometry relative="1" as="geometry">
            <Array as="points" />
          </mxGeometry>
        </mxCell>
        <mxCell id="LV2NHQDLvLL5Tr6K8rxL-91" value="&lt;font style=&quot;font-size: 18px;&quot;&gt;-&lt;/font&gt;" style="edgeLabel;html=1;align=center;verticalAlign=middle;resizable=0;points=[];" vertex="1" connectable="0" parent="LV2NHQDLvLL5Tr6K8rxL-88">
          <mxGeometry x="-0.2811" y="1" relative="1" as="geometry">
            <mxPoint x="16" y="-2" as="offset" />
          </mxGeometry>
        </mxCell>
        <mxCell id="LV2NHQDLvLL5Tr6K8rxL-76" value="Enough Nodes?" style="rhombus;fillColor=#ffffc0;strokeColor=#ff0000;" vertex="1" parent="1">
          <mxGeometry x="2094.69" y="2275.9999999999995" width="192.39" height="73" as="geometry" />
        </mxCell>
        <mxCell id="LV2NHQDLvLL5Tr6K8rxL-99" style="edgeStyle=orthogonalEdgeStyle;rounded=0;orthogonalLoop=1;jettySize=auto;html=1;" edge="1" parent="1" source="LV2NHQDLvLL5Tr6K8rxL-92" target="LV2NHQDLvLL5Tr6K8rxL-76">
          <mxGeometry relative="1" as="geometry">
            <Array as="points">
              <mxPoint x="1976" y="2476" />
              <mxPoint x="1976" y="2312" />
            </Array>
          </mxGeometry>
        </mxCell>
        <mxCell id="LV2NHQDLvLL5Tr6K8rxL-92" value="add_node()" style="rounded=0;whiteSpace=wrap;html=1;" vertex="1" parent="1">
          <mxGeometry x="1991" y="2462" width="120" height="27" as="geometry" />
        </mxCell>
      </root>
    </mxGraphModel>
  </diagram>
</mxfile>
